<?xml version="1.0" encoding="UTF-8"?><svg id="_레이어_2" xmlns="http://www.w3.org/2000/svg" xmlns:xlink="http://www.w3.org/1999/xlink" viewBox="0 0 2087.57 716"><defs><style>.cls-1{fill:#003f4e;}.cls-2{clip-path:url(#clippath);}.cls-3{fill:#35bde3;}.cls-4{fill:none;}</style><clipPath id="clippath"><rect class="cls-4" width="716" height="716"/></clipPath></defs><g id="_레이어_1-2"><g class="cls-2"><g id="_이어_1-2"><path class="cls-3" d="m592.91,156.24l-1.24-15.6-15.58,1.42c-1.17.1-119.13,10.07-209-54.39l-9-8.06-9,8.06c-89.87,64.47-207.82,54.5-209,54.39l-15.62-1.46-1.24,15.64c-7.21,91.52,5.97,183.04,6.55,187.14l32.68,14.34c-.04-.29-1.42-10.26-3.17-26.39h55.11l56.43,56.43h89.66c1.94,9.87,10.65,17.33,21.08,17.33,11.85,0,21.49-9.64,21.49-21.49s-9.64-21.49-21.49-21.49c-7.27,0-13.7,3.65-17.6,9.17h-86.33l-56.43-56.43h-63.62c-.66-6.9-1.32-14.42-1.96-22.44h222.43c3.23,7.77,10.92,13.25,19.84,13.25,11.85,0,21.49-9.64,21.49-21.49s-9.64-21.49-21.49-21.49c-8.94,0-16.61,5.48-19.84,13.25h-223.58c-.49-7.44-.93-15.16-1.28-23.05h84.08l60.2-58.04h84.33c3.23,7.77,10.92,13.25,19.84,13.25,11.85,0,21.49-9.64,21.49-21.49s-9.64-21.49-21.49-21.49c-8.94,0-16.61,5.48-19.84,13.25h-90.98l-60.2,58.04h-78.07c-.62-20.73-.62-42.22.49-62.76,36.14.74,126.96-3.21,205-54.68,78.04,51.47,168.86,55.42,205,54.68,4.51,83.85-9.27,183.18-9.39,184.09l32.68-14.34c.56-4.12,13.76-95.62,6.55-187.14h0Zm-211.31,216.17c6.18,0,11.19,5.03,11.19,11.19s-5.03,11.19-11.19,11.19-11.19-5.03-11.19-11.19,5.03-11.19,11.19-11.19Zm16.34-99.43c6.18,0,11.19,5.03,11.19,11.19s-5.03,11.19-11.19,11.19-11.19-5.03-11.19-11.19,5.03-11.19,11.19-11.19Zm3.71-97.6c6.18,0,11.19,5.03,11.19,11.19s-5.03,11.19-11.19,11.19-11.19-5.03-11.19-11.19,5.03-11.19,11.19-11.19Z"/><path class="cls-1" d="m700.5,262.91c0-43.53-26.27-73.37-70.44-105.45,26.35,27.09,41.41,48.19,41.41,81.69,0,102.17-140.31,182.93-313.39,182.93S44.7,335.82,44.7,239.13c0-33.48,15.06-54.58,41.41-81.69-44.17,32.1-70.44,61.91-70.44,105.47,0,61.85,52.97,120.05,135.03,157.53h-.04s44.15,140.57,207.41,216.54c163.26-75.96,207.41-216.54,207.41-216.54h-.04c82.06-37.48,135.03-95.68,135.03-157.53h.02Z"/></g></g><path d="m1025.61,481.24h-150.78l-24.95,72.14h-79.73l136.14-379.12h88.41l136.14,379.12h-80.27l-24.95-72.14Zm-20.61-60.75l-54.78-158.37-54.78,158.37h109.56Z"/><path d="m1257.74,152.02v401.35h-75.93V152.02h75.93Z"/><path d="m1337.74,204.36c-8.86-8.49-13.29-19.07-13.29-31.73s4.42-23.23,13.29-31.73c8.86-8.49,19.97-12.75,33.36-12.75s24.49,4.25,33.36,12.75c8.86,8.5,13.29,19.08,13.29,31.73s-4.43,23.24-13.29,31.73c-8.86,8.5-19.98,12.75-33.36,12.75s-24.5-4.25-33.36-12.75Zm70.78,48.54v300.47h-75.93V252.9h75.93Z"/><path d="m1608.66,483.41l75.93-230.51h80.81l-111.19,300.47h-92.2l-110.64-300.47h81.36l75.93,230.51Z"/><path d="m2085.4,425.92h-219.66c1.8,21.69,9.4,38.69,22.78,50.98,13.37,12.3,29.83,18.44,49.36,18.44,28.2,0,48.27-12.11,60.2-36.34h81.9c-8.68,28.93-25.31,52.7-49.9,71.32-24.59,18.63-54.78,27.93-90.58,27.93-28.93,0-54.87-6.42-77.83-19.25-22.97-12.83-40.86-31-53.69-54.51-12.84-23.5-19.25-50.62-19.25-81.36s6.32-58.39,18.98-81.9c12.65-23.5,30.37-41.58,53.15-54.24,22.78-12.65,48.99-18.98,78.64-18.98s54.14,6.15,76.75,18.44c22.59,12.3,40.14,29.75,52.61,52.34,12.47,22.6,18.71,48.54,18.71,77.83,0,10.85-.73,20.61-2.17,29.29Zm-76.47-50.98c-.36-19.53-7.42-35.16-21.15-46.92-13.75-11.75-30.56-17.63-50.44-17.63-18.81,0-34.63,5.69-47.46,17.08-12.84,11.39-20.7,27.21-23.59,47.46h142.64Z"/></g></svg>