<?xml version="1.0" encoding="UTF-8"?><svg id="_레이어_2" xmlns="http://www.w3.org/2000/svg" viewBox="0 0 73.63 73.64"><defs><style>.cls-1{fill:#fff;}.cls-2{fill:#f7931a;}</style></defs><g id="ELEMENTS"><path class="cls-2" d="m72.53,45.73c-4.92,19.73-24.9,31.73-44.63,26.81C8.19,67.62-3.82,47.64,1.1,27.92,6.02,8.19,26-3.82,45.72,1.1c19.73,4.92,31.73,24.9,26.81,44.63h0Z"/><path class="cls-1" d="m53.05,31.58c.73-4.9-3-7.53-8.1-9.29l1.65-6.64-4.04-1.01-1.61,6.46c-1.06-.26-2.15-.51-3.24-.76l1.62-6.5-4.04-1.01-1.66,6.63c-.88-.2-1.74-.4-2.58-.61v-.02s-5.57-1.39-5.57-1.39l-1.07,4.32s3,.69,2.93.73c1.64.41,1.93,1.49,1.88,2.35l-1.89,7.59-2.64,10.59c-.2.5-.71,1.24-1.85.96.04.06-2.94-.73-2.94-.73l-2.01,4.63,5.26,1.31c.98.25,1.94.5,2.88.74l-1.67,6.71,4.04,1.01,1.66-6.64c1.1.3,2.17.58,3.22.84l-1.65,6.61,4.04,1.01,1.67-6.7c6.89,1.3,12.07.78,14.25-5.45,1.76-5.02-.09-7.91-3.71-9.8,2.64-.61,4.63-2.35,5.16-5.93h0Zm-9.23,12.94c-1.25,5.02-9.7,2.31-12.44,1.62l2.22-8.89c2.74.68,11.52,2.04,10.22,7.27h0Zm1.25-13.02c-1.14,4.56-8.17,2.24-10.45,1.68l2.01-8.07c2.28.57,9.63,1.63,8.44,6.39Z"/></g></svg>