<svg width="13" height="21" viewBox="0 0 13 21" fill="none" xmlns="http://www.w3.org/2000/svg">
<path fill-rule="evenodd" clip-rule="evenodd" d="M7.25715 18.0748C7.58479 17.9687 7.70741 17.7674 7.85973 17.6097C9.07688 16.3513 10.284 15.0824 11.5059 13.8289C11.9605 13.3624 12.4313 13.3198 12.77 13.6663C13.1111 14.0153 13.079 14.5127 12.6325 14.9808C10.8331 16.8664 9.02802 18.7463 7.21235 20.6148C6.71827 21.1235 6.28954 21.1294 5.80001 20.6263C3.96926 18.7438 2.15047 16.849 0.338155 14.9474C-0.0737846 14.5149 -0.100615 14.0088 0.210025 13.6733C0.533345 13.324 1.03512 13.3599 1.47843 13.8135C2.6872 15.0512 3.87824 16.3074 5.08533 17.5469C5.2446 17.7103 5.38471 18.0521 5.63356 17.9308C5.86467 17.8179 5.73798 17.4767 5.7382 17.2395C5.74444 11.9677 5.74301 6.69556 5.74324 1.42368C5.74324 1.21619 5.73941 1.0082 5.74969 0.801184C5.77365 0.316713 6.00285 0.00632286 6.48594 9.34601e-05C7.00254 -0.00661659 7.23461 0.319183 7.25211 0.831833C7.25928 1.03932 7.25689 1.24707 7.25689 1.45457C7.25713 6.72644 7.25713 11.9986 7.25713 17.2704C7.25713 17.5155 7.25713 17.7606 7.25713 18.0748L7.25715 18.0748Z" fill="#0079C0"/>
</svg>
