<svg width="80" height="80" viewBox="0 0 80 80" fill="none" xmlns="http://www.w3.org/2000/svg">
<g clip-path="url(#clip0_1388_8478)">
<path d="M0 40C0 17.9086 17.9086 0 40 0V0C62.0914 0 80 17.9086 80 40V40C80 62.0914 62.0914 80 40 80V80C17.9086 80 0 62.0914 0 40V40Z" fill="white"/>
<g opacity="0.1" filter="url(#filter0_d_1388_8478)">
<path fill-rule="evenodd" clip-rule="evenodd" d="M40 80C62.0914 80 80 62.0914 80 40C80 17.9086 62.0914 0 40 0C17.9086 0 0 17.9086 0 40C0 62.0914 17.9086 80 40 80Z" fill="white"/>
</g>
<path d="M22 51C22 52.6875 23.3125 54 25 54H55C56.625 54 58 52.6875 58 51V40H22V51ZM34 46.75C34 46.375 34.3125 46 34.75 46H43.25C43.625 46 44 46.375 44 46.75V49.25C44 49.6875 43.625 50 43.25 50H34.75C34.3125 50 34 49.6875 34 49.25V46.75ZM26 46.75C26 46.375 26.3125 46 26.75 46H31.25C31.625 46 32 46.375 32 46.75V49.25C32 49.6875 31.625 50 31.25 50H26.75C26.3125 50 26 49.6875 26 49.25V46.75ZM58 29C58 27.375 56.625 26 55 26H25C23.3125 26 22 27.375 22 29V32H58V29Z" fill="#037DD6"/>
</g>
<defs>
<filter id="filter0_d_1388_8478" x="-24" y="-20" width="128" height="128" filterUnits="userSpaceOnUse" color-interpolation-filters="sRGB">
<feFlood flood-opacity="0" result="BackgroundImageFix"/>
<feColorMatrix in="SourceAlpha" type="matrix" values="0 0 0 0 0 0 0 0 0 0 0 0 0 0 0 0 0 0 127 0" result="hardAlpha"/>
<feOffset dy="4"/>
<feGaussianBlur stdDeviation="12"/>
<feComposite in2="hardAlpha" operator="out"/>
<feColorMatrix type="matrix" values="0 0 0 0 0.847162 0 0 0 0 0.847162 0 0 0 0 0.847162 0 0 0 0.2 0"/>
<feBlend mode="normal" in2="BackgroundImageFix" result="effect1_dropShadow_1388_8478"/>
<feBlend mode="normal" in="SourceGraphic" in2="effect1_dropShadow_1388_8478" result="shape"/>
</filter>
<clipPath id="clip0_1388_8478">
<path d="M0 40C0 17.9086 17.9086 0 40 0V0C62.0914 0 80 17.9086 80 40V40C80 62.0914 62.0914 80 40 80V80C17.9086 80 0 62.0914 0 40V40Z" fill="white"/>
</clipPath>
</defs>
</svg>
