<?xml version="1.0" encoding="UTF-8"?><svg id="_이어_2" xmlns="http://www.w3.org/2000/svg" viewBox="0 0 111.73 120.62"><defs><style>.cls-1{fill:#fff;}</style></defs><g id="_이어_1-2"><g><path class="cls-1" d="M105.1,0H6.62C2.97,0,0,2.97,0,6.62V105.1c0,3.65,2.97,6.62,6.62,6.62h6.75c-1.02,.31-1.77,1.26-1.77,2.38v4.01c0,1.38,1.12,2.5,2.5,2.5h19.61c1.38,0,2.5-1.12,2.5-2.5v-4.01c0-1.12-.75-2.06-1.77-2.38h42.84c-1.02,.31-1.77,1.26-1.77,2.38v4.01c0,1.38,1.12,2.5,2.5,2.5h19.61c1.38,0,2.5-1.12,2.5-2.5v-4.01c0-1.12-.75-2.06-1.77-2.38h6.75c3.65,0,6.62-2.97,6.62-6.62V6.62c0-3.65-2.97-6.62-6.62-6.62Zm1.62,6.62V105.1c0,.9-.73,1.62-1.62,1.62H6.62c-.9,0-1.62-.73-1.62-1.62V6.62c0-.9,.73-1.62,1.62-1.62H105.1c.9,0,1.62,.73,1.62,1.62ZM31.21,114.11v1.51h-14.61v-1.51c0-1.12-.75-2.06-1.77-2.38h18.15c-1.02,.31-1.77,1.26-1.77,2.38Zm63.91,0v1.51h-14.61v-1.51c0-1.12-.75-2.06-1.77-2.38h18.15c-1.02,.31-1.77,1.26-1.77,2.38Z"/><path class="cls-1" d="M31.51,44.17c-1.74,3.63-2.66,7.66-2.66,11.69s.92,8.04,2.65,11.67l-3.97,3.97c-1.95,1.95-1.95,5.13,0,7.09l5.58,5.58c1.95,1.95,5.13,1.95,7.09,0l3.96-3.96c7.27,3.5,16.14,3.5,23.42,0l3.96,3.96c.95,.95,2.2,1.47,3.54,1.47s2.6-.52,3.54-1.47l5.58-5.58c1.95-1.95,1.95-5.13,0-7.09l-3.97-3.97c1.74-3.63,2.65-7.64,2.65-11.67s-.92-8.06-2.66-11.69l3.98-3.98c.95-.95,1.47-2.21,1.47-3.54s-.52-2.6-1.47-3.54l-5.57-5.58c-.91-.91-2.2-1.43-3.54-1.43h0c-1.34,0-2.64,.52-3.54,1.43l-3.98,3.98c-7.27-3.49-16.11-3.49-23.38,0l-3.98-3.98c-.95-.95-2.21-1.47-3.54-1.47s-2.6,.52-3.54,1.47l-5.58,5.57c-.95,.95-1.47,2.21-1.47,3.54s.52,2.6,1.47,3.54l3.98,3.98Zm43.18-4.21c.96-.99,.93-2.58-.06-3.54-.82-.79-1.72-1.55-2.67-2.26l3.12-3.11,5.58,5.59-6.63,6.63,.95,1.66c1.9,3.31,2.9,7.09,2.9,10.91s-1,7.59-2.89,10.9l-.11,.19c-.85,1.46-1.86,2.81-3,4.02-.95,1-.9,2.59,.1,3.53,.96,.91,2.62,.86,3.53-.1,.72-.76,1.4-1.58,2.04-2.45l3.09,3.11-5.59,5.58-6.61-6.61-1.66,.95c-3.32,1.9-7.1,2.91-10.93,2.91s-7.61-1.01-10.93-2.91l-.18-.1c-1.72-1.01-3.29-2.23-4.66-3.64-.96-.99-2.55-1.01-3.54-.05-.99,.96-1.01,2.55-.05,3.53,.99,1.02,2.08,1.97,3.23,2.83l-3.1,3.09-5.58-5.59,6.62-6.62-.95-1.66c-1.89-3.31-2.89-7.08-2.89-10.9s1-7.6,2.9-10.92l.1-.18c.98-1.67,2.16-3.2,3.51-4.54,.48-.47,.74-1.1,.74-1.76s-.25-1.3-.72-1.77c-.47-.48-1.1-.74-1.77-.74h0c-.66,0-1.29,.26-1.76,.72-.96,.95-1.85,1.98-2.67,3.09l-3.11-3.11h0l5.59-5.58,6.63,6.63,1.66-.95c3.31-1.9,7.09-2.9,10.91-2.9s7.6,1,10.92,2.9l.19,.11c1.53,.89,2.93,1.96,4.19,3.17,.96,.93,2.6,.9,3.54-.06Z"/><path class="cls-1" d="M97.62,11.61H14.11c-1.38,0-2.5,1.12-2.5,2.5V97.62c0,1.38,1.12,2.5,2.5,2.5H97.62c1.38,0,2.5-1.12,2.5-2.5V14.11c0-1.38-1.12-2.5-2.5-2.5Zm-2.5,5V95.12H16.61V16.61H95.12Z"/><path class="cls-1" d="M51.87,43.51h-4.74c-1.99,0-3.6,1.62-3.6,3.6v4.74c0,1.99,1.62,3.6,3.6,3.6h4.74c1.99,0,3.6-1.62,3.6-3.6v-4.74c0-1.99-1.62-3.6-3.6-3.6Zm-1.4,5v1.95h-1.95v-1.95h1.95Z"/><path class="cls-1" d="M64.6,43.51h-4.74c-1.99,0-3.6,1.62-3.6,3.6v4.74c0,1.99,1.62,3.6,3.6,3.6h4.74c1.99,0,3.6-1.62,3.6-3.6v-4.74c0-1.99-1.62-3.6-3.6-3.6Zm-1.4,5v1.95h-1.95v-1.95h1.95Z"/><path class="cls-1" d="M51.87,56.23h-4.74c-1.99,0-3.6,1.62-3.6,3.6v4.74c0,1.99,1.62,3.6,3.6,3.6h4.74c1.99,0,3.6-1.62,3.6-3.6v-4.74c0-1.99-1.62-3.6-3.6-3.6Zm-1.4,5v1.95h-1.95v-1.95h1.95Z"/><path class="cls-1" d="M64.6,56.23h-4.74c-1.99,0-3.6,1.62-3.6,3.6v4.74c0,1.99,1.62,3.6,3.6,3.6h4.74c1.99,0,3.6-1.62,3.6-3.6v-4.74c0-1.99-1.62-3.6-3.6-3.6Zm-1.4,5v1.95h-1.95v-1.95h1.95Z"/></g></g></svg>