<?xml version="1.0" encoding="UTF-8"?><svg id="_이어_2" xmlns="http://www.w3.org/2000/svg" viewBox="0 0 1376.95 1182.4"><defs><style>.cls-1{fill:#fff;}</style></defs><g id="Layer_1"><g><path class="cls-1" d="M1354.82,569.16c-14.34-44.6-35.06-87.62-62.1-125.92-27.76-39.32-60.32-73.94-98.4-103.35-38.48-29.73-80.45-52.78-126.09-69.68-44.81-16.6-92.76-25.37-140.47-27.25-4.55-.18-9.11-.29-13.67-.33l-66.06-143.83c-2.18-4.74-7.81-6.83-12.56-4.65l-91.99,42.25c-3.39-12.9-7.78-25.56-13.07-37.86-6.93-16.11-16.15-30.65-27.34-44.15-4.69-5.65-9.86-10.91-15.55-15.56-7.38-6.05-15.04-11.77-23.58-16.06-35.49-17.82-78.47-20.91-116.5-9.96-38.3,11.02-71.44,35.63-93.38,68.82-11.43,17.29-19.34,37.3-23.99,57.44-4.99,21.58-6.96,43.78-9.46,65.76-.43,3.76-.87,7.52-1.35,11.28-2.34,16.39-5.64,32.68-11.64,48.15-2.82,6.15-6.14,12.02-10.06,17.53-3.03,3.61-6.33,6.97-9.91,10.03-3.18,2.21-6.52,4.17-10,5.86-3.87,1.4-7.84,2.47-11.89,3.22-5.1,.43-10.21,.37-15.31-.1-6.95-1.23-13.73-3.18-20.31-5.71-8.14-3.74-15.86-8.32-23.1-13.61-7.23-5.9-13.86-12.49-19.78-19.71-6.18-8.55-11.23-17.91-16.2-27.2-5.86-10.94-11.49-22.02-17.54-32.86-6.1-10.92-12.61-21.66-20.2-31.61-4.98-6.54-10-13.03-15.74-18.93-5.68-5.83-11.99-10.87-18.52-15.73-5.46-4.07-11.35-7.52-17.59-10.26-8.62-3.78-17.11-7.02-26.41-8.61-7.5-1.28-14.47-1.19-21.27,2.78-5.73,3.35-11.19,9.92-12.68,16.5-1.61,7.07-1.26,15,2.78,21.27,3.67,5.7,9.53,11.49,16.5,12.68,5.35,.92,10.58,2.31,15.65,4.18,4.8,2.29,9.38,5,13.71,8.09,6.39,5.33,12.11,11.38,17.35,17.84,15.33,20.73,26.29,44.23,38.6,66.79,7.18,13.17,15.05,25.54,24.9,36.94,9.83,11.37,21.68,21.18,34.21,29.43,12.23,8.05,26.02,14.38,40.08,18.44,13.43,3.88,28.16,5.9,42.13,4.48,16.29-1.65,31.99-5.88,45.94-14.78,15.1-9.64,27.38-22.85,36.61-38.16,10.03-16.63,16.22-35.83,20-54.8,3.96-19.87,5.82-40.11,8.13-60.22,.39-3.42,.81-6.83,1.24-10.25,2.35-16.32,5.66-32.53,11.65-47.92,4.08-9.02,8.99-17.62,14.81-25.62,5.85-7.13,12.38-13.64,19.51-19.48,7.77-5.67,16.09-10.52,24.85-14.51,9.22-3.59,18.77-6.21,28.54-7.82,9.73-1.02,19.52-1.02,29.25,0,8.9,1.44,17.76,3.68,26.19,6.89,5.34,2.51,10.41,5.51,15.21,8.94,5.72,4.77,10.93,10.11,15.65,15.87,6.79,9.31,12.42,19.41,17.11,29.93,4.62,11.58,8.18,23.57,10.77,35.77l-139.72,64.17c-2.3,1.06-4.05,2.94-4.93,5.31-.88,2.37-.78,4.94,.27,7.24l56.18,122.32c-18.23,16.03-35.22,33.46-50.55,52.26-15.64,19.18-30.26,39.21-42.91,60.5-12.79,21.53-23.29,44.15-32.71,67.33-18.11,44.57-28.11,91.95-31.8,139.86-3.77,48.88,.73,98.82,12.22,146.45,10.98,45.53,29.33,89.97,53.46,130.11,23.82,39.62,53.73,76.35,88.2,107.19,34.45,30.82,73.2,57.23,115.3,76.42,22.8,10.39,46.2,19.52,70.33,26.3,24.69,6.94,49.87,11.22,75.32,14.22,48.57,5.73,97.99,2.67,145.85-7.15,45.8-9.39,90.48-26.59,131.21-49.49,40.24-22.63,77.58-51.78,109.29-85.33,31.74-33.58,59.14-72.02,79.58-113.49,21-42.59,36.31-87.98,43.46-134.98,3.86-25.39,6.38-50.86,6.41-76.56-.07-48.33-7.32-97.34-22.12-143.38Z"/><path class="cls-1" d="M125.11,72.3c1.29,5.6,5.9,11.17,10.78,14.02,5.03,2.94,12.44,4.19,18.08,2.37,5.68-1.84,11.15-5.36,14.02-10.78,3.02-5.72,3.83-11.71,2.37-18.08-2.86-12.41-5.72-24.83-8.58-37.24l-1.23-5.35c-1.29-5.6-5.9-11.17-10.78-14.02-5.03-2.94-12.44-4.19-18.08-2.37-5.68,1.84-11.15,5.36-14.02,10.78-3.02,5.72-3.83,11.71-2.37,18.08l8.58,37.24c.41,1.78,.82,3.56,1.23,5.35Z"/><path class="cls-1" d="M58.91,134.32c5.71,1.76,12.98,.62,18.08-2.37,4.87-2.85,9.51-8.43,10.78-14.02,1.37-6.01,1.07-12.75-2.37-18.08-3.37-5.23-8-8.92-14.02-10.78-12.17-3.76-24.35-7.52-36.52-11.27-1.75-.54-3.49-1.08-5.24-1.62-5.71-1.76-12.98-.62-18.08,2.37-4.87,2.85-9.51,8.43-10.78,14.02-1.37,6.01-1.07,12.75,2.37,18.08,3.37,5.23,8,8.92,14.02,10.78,12.17,3.76,24.35,7.52,36.52,11.27,1.75,.54,3.49,1.08,5.24,1.62Z"/><path class="cls-1" d="M89.57,177.93c-5.82-1.33-13.03-1.27-18.08,2.37l-31.78,22.85c-1.53,1.1-3.06,2.2-4.59,3.3-2.73,1.47-4.93,3.49-6.58,6.04-2.07,2.27-3.47,4.93-4.2,7.98-1.55,5.62-.85,13.09,2.37,18.08,3.23,5.01,8.04,9.42,14.02,10.78,5.82,1.33,13.03,1.27,18.08-2.37l31.78-22.85c1.53-1.1,3.06-2.2,4.59-3.3,2.73-1.47,4.93-3.49,6.58-6.04,2.07-2.27,3.47-4.93,4.2-7.98,1.55-5.62,.85-13.09-2.37-18.08-3.23-5.01-8.04-9.42-14.02-10.78Z"/></g></g></svg>