<?xml version="1.0" encoding="UTF-8"?><svg id="_이어_2" xmlns="http://www.w3.org/2000/svg" viewBox="0 0 258.24 248.96"><defs><style>.cls-1{fill:#fff;}</style></defs><g id="_이어_1-2"><path class="cls-1" d="M254.92,93.47c-1.17-.75-2.3-1-3.34-.75-2.55,.6-5.12,1.27-7.38,1.86l-4.26,1.1c-2.27,.58-4.55,1.17-6.81,1.78-1.19,.32-1.84,.09-2.56-.94-.75-1.07-1.53-2.12-2.31-3.17-1.09-1.46-2.21-2.97-3.22-4.51-6.93-10.57-12.03-22.38-15.6-36.12-.51-1.95-.2-3.1,1.15-4.24,2.65-2.24,5.3-4.49,7.94-6.75l5.7-4.85c.48-.4,.95-.8,1.43-1.2l.14-.12c.92-.76,1.86-1.55,2.78-2.37,.56-.5,.72-1.12,.86-1.64,.04-.15,.09-.33,.16-.54l1.81-5.29-8.58,6.14c-4.74,3.38-9.47,7.32-14.46,12.06-1.44,1.36-2.87,1.81-4.93,1.55-4.45-.58-8.98-2.04-14.25-4.61-12.85-6.27-23.67-14.89-32.56-22.49-.75-.65-1.01-1.38-.86-2.45,.5-3.56,.85-6.27,1.16-8.78,.07-.59,0-1.14-.08-1.62-.02-.12-.03-.24-.05-.36l-.4-4.48-2.79,3.53c-1.03,1.3-1.35,2.64-1.52,3.78-.36,2.33-.79,4.88-1.3,7.78-.21,1.18-.62,1.67-1.56,1.9-1.42,.34-2.81,.78-4.17,1.21-.8,.25-1.61,.5-2.41,.74-7.12,2.04-14.79,3.65-22.77,4.77-2.93,.41-6,.74-8.72,1.03-1.43,.15-2.86,.3-4.29,.47-5.95,.68-12.05,.79-17.24,.8-.7,0-.8-.17-.96-.57-.66-1.62-1.38-3.24-2.08-4.81l-.72-1.62c-1.81-4.09-3.61-8.18-5.45-12.27-.21-.48-.49-.86-.81-1.31-.15-.21-.32-.45-.52-.75l-3.58-5.36,.3,6.44c.01,.29,.01,.5,.02,.68,0,.41,0,.8,.17,1.25l.29,.81c.49,1.36,.99,2.77,1.57,4.15,1.71,4.07,3.45,8.13,5.19,12.18l1.3,3.04c.66,1.54,.6,2.82-.21,4.28-2.22,4.02-5.03,7.83-8.61,11.65-8.11,8.64-17.86,16.31-31.63,24.86-.73,.45-1.19,.49-1.87,.15-2.17-1.09-4.39-2.08-6.47-2.98l-.11-.05c-1.77-.77-3.6-1.56-6-1.56l-5.3,.05,4.25,3.17c.06,.05,.13,.1,.24,.19,.26,.22,.59,.49,1.02,.71,1.75,.88,3.53,1.76,5.3,2.61,1.71,.82,3.44,1.62,5.16,2.41,.62,.28,.85,.57,.92,1.15,.09,.75,.21,1.5,.35,2.28,.16,.97,.32,1.89,.39,2.8,.42,5.61,.34,11.28-.26,17.33-.74,7.44-2.13,15.05-4.14,22.64l-.1,.37c-.57,2.15-1.16,4.38-1.84,6.52-.56,1.77-1.02,2.08-1.84,2.11-1.13,.04-2.27,.09-3.4,.13h-.13c-2.1,.09-4.27,.18-6.39,.23-1.93,.04-3.86,.04-5.79,.05-4.37,0-8.89,.02-13.37,.48-.07,0-.13,0-.24,.01-.66,.03-2.19,.1-3.02,1.82l-1.25,2.57H4.63c1.25,0,2.47,0,3.69,0h3.64c3.1-.01,6.2-.02,9.31-.05,1.75-.02,3.51-.07,5.26-.12,1.99-.06,4.04-.11,6.1-.13,1.51,0,2.4,.62,2.98,2.08,2.15,5.36,3.91,10.86,5.24,16.35,1.68,6.94,2.83,14.53,3.49,23.21,.08,1.03-.23,1.42-.79,1.73-.76,.43-1.65,.93-2.48,1.52-1.08,.77-2.15,1.57-3.21,2.37l-1.01,.75c-.49,.36-.8,.96-.82,1.56-.02,.6,.24,1.14,.73,1.55l.9,.81,1.19-.43c.25-.08,.62-.19,1-.41l1.31-.72c1.41-.77,2.86-1.57,4.28-2.46,1.28-.8,2.5-.9,4.07-.33,5.57,2.01,10.85,5.05,15.71,9.04,7.23,5.94,13.49,13.26,19.14,22.38,.8,1.29,.83,2.35,.1,3.76-2.38,4.6-4.8,9.41-6.93,13.65l-1.48,2.94c-.2,.4-.3,.79-.4,1.17-.04,.15-.08,.33-.14,.52l-1.23,4.07,3.77-1.97c2-1.04,2.83-2.67,3.44-3.86l1.9-3.69c1.79-3.47,3.63-7.06,5.41-10.61,.76-1.52,1.89-2.5,3.65-3.15,4.62-1.71,9.5-2.15,13.24-2.34,6.08-.31,12.22,.37,17.96,1.16,9.76,1.34,19.14,3.73,27.83,6.11,1.89,.52,2.85,1.48,3.43,3.43,1.03,3.49,2.15,7.01,3.24,10.4l.35,1.1c.73,2.28,1.49,4.55,2.25,6.86l2.05,6.21,2.06-2.48c1.59-1.91,.98-3.79,.65-4.8-1.28-3.96-2.53-7.92-3.79-11.88l-.21-.67c-.77-2.43-1.54-4.87-2.32-7.3-.47-1.49-.25-2.56,.76-3.69,2.9-3.26,6.32-6.38,10.46-9.52,9.65-7.31,20.7-13.59,35.83-20.37,.81-.36,1.37-.27,2.12,.34,2.11,1.75,18.3,14.73,20.54,16.45,1.39,1.07,3.1,2.27,5.19,3.02l7.52,2.7-5.65-5.65c-1.68-1.68-3.57-3.41-5.79-5.29-.68-.57-4.68-3.77-8.93-7.16-3.74-2.99-8.4-6.7-9.07-7.27-1.44-1.22-1.85-2.3-1.44-3.75,.22-.79,.4-1.59,.58-2.38,.21-.92,.4-1.79,.67-2.63,2.9-9.28,7.58-18,14.29-26.67,.6-.77,1.07-1,1.86-.93l.33,.04c.48,.05,.96,.1,1.44,.16,.58,.07,2.17,.27,4.16,.51,4.67,.58,11.72,1.45,13.12,1.6,.54,.05,1.04,.01,1.51-.03,.16-.01,.31-.03,.47-.04l1.62-.08,.08-1.62c.08-1.81-.94-2.92-2.8-3.05h-.18c-2.75-.33-16.78-2.01-19.25-2.32-.6-.08-.68-.12-.77-.81-.03-.23-.05-.46-.07-.73-.04-.44-.08-.9-.17-1.4-1.05-5.28-1.09-10.98-.13-17.43,.96-6.46,3.07-13.08,6.61-20.81,.31-.67,.7-1.04,1.27-1.19,1.42-.37,2.85-.73,4.27-1.09l.45-.12c2.52-.64,5.05-1.28,7.56-1.94,1.57-.42,3.14-.89,4.71-1.37,.69-.21,1.38-.42,2.07-.62l3.77-1.11-3.32-2.11Zm-207.95-5.92c-.03-2.92-.32-5.86-.59-8.71-.06-.66-.13-1.32-.19-1.97,1.15,.56,2.32,1.14,3.54,1.75,2.97,1.48,6.05,3,9.14,4.39,1.82,.82,2.66,2.09,2.9,4.39,.89,8.6,.56,17.08-.99,25.19-.86,4.51-2.26,9.06-4.27,13.91-.72,1.74-1.6,2.34-3.47,2.34h-.05c-2.82-.03-5.65,.07-8.49,.17h-.19c-1.43,.06-2.86,.11-4.29,.14h-.05l.06-.2c.36-1.26,.75-2.57,1.12-3.89,2.12-7.48,3.71-15,4.71-22.37,.83-6.09,1.17-10.76,1.12-15.15Zm157.17,48.77c.09,1.06,.07,2.19,.04,3.38v.18h-.03c-4.03-.77-8.05-1.57-12.07-2.37l-1-.2c-1.28-.26-1.58-.9-1.69-1.5l-.06-.33c-.74-3.84-1.44-7.46-.8-11.14,.18-1.05,.37-2.11,.56-3.16l.08-.46c.26-1.46,.52-2.92,.77-4.38,.28-1.6,1.11-2.41,2.97-2.86,2.91-.71,5.83-1.53,8.66-2.32l.35-.1c1.24-.35,2.48-.7,3.73-1.04-.58,1.7-.97,3.62-1.19,5.86-.76,7.48-.86,14.17-.3,20.45Zm-35.23-51.6l-1.15,1.26c-2.48,2.71-4.92,5.38-7.35,8.07-.62,.69-1.22,.87-2,.61-1.64-.54-3.37-1.15-4.9-1.99-2.54-1.4-4.84-3.52-7.06-6.48-.83-1.1-1.05-2.46-.75-4.52,.39-2.71,.89-5.47,1.38-8.14l.23-1.3,.45,.35c1.9,1.48,3.7,2.88,5.62,4.19,2.45,1.67,5.38,3.58,8.54,5.13,2.11,1.04,4.25,1.82,6.52,2.64l.19-.46-.17,.47,.45,.16Zm-96.07,47.62h0Zm111.18,1.79l.13,1.78c-3.53-.75-6.99-1.54-9.62-2.14-.32-.07-.64-.18-.99-.3-.37-.12-.74-.24-1.12-.34-1.54-.39-2.15-1.32-2.26-3.42-.16-3.05,.49-6.16,1.97-9.49,.36-.82,1.06-1.32,2.31-1.68,2.85-.8,5.7-1.57,8.55-2.34l1.24-.34c.27-.07,.54-.14,.83-.22-.86,3.42-1.64,6.67-1.55,10.1,.08,2.78,.28,5.5,.5,8.38Zm-95.62-31.73c-.05-1.15-.16-2.26-.28-3.44,1.94,1.14,3.84,2.27,5.74,3.4,.59,.35,1.17,.72,1.75,1.08,.77,.49,1.65,1.04,2.53,1.54,.92,.52,1.29,1.18,1.36,2.44,.2,3.64-.17,7.53-1.12,11.88-.41,1.89-.92,3.81-1.41,5.67l-.4,1.51c-2.85,.54-8.93,.96-12.69,.88,.52-1.33,1.05-2.7,1.5-4.1,.77-2.37,1.36-4.56,1.82-6.71,.6-2.79,.96-5.06,1.13-7.13,.21-2.53,.14-5.08,.05-7.02Zm77.05,28.78h0c0,.22,.02,.44,.03,.66-2.96-.61-5.62-1.21-8.15-1.84-1.46-.36-2.17-1.29-2.23-2.93-.06-1.54,1.02-3.55,2.56-3.95,2.78-.72,5.59-1.51,8.3-2.27l.73-.21c-.5,1.67-.95,3.28-1.17,4.96-.24,1.88-.16,3.76-.08,5.59Zm-23.07,5.15c-.46,.16-.93,.35-1.45,.59-.72,.34-1.34,.78-1.89,1.23-.36-1.58-.62-3.21-.88-4.93l-.05-.29,4.26,3.4Zm7.88-7.92c-2.24-.52-4.48-1.04-6.73-1.57,2.39-.69,4.95-1.36,6.87-1.8-.25,1.12-.29,2.25-.14,3.37Zm-11.64-10.24l2.37-10.98c.84,.58,1.61,1.08,2.48,1.5,.91,.44,1.82,.74,2.8,1.04-2.54,2.82-5.09,5.63-7.64,8.44Zm-11.33-9.93c1.44,.24,2.92,.49,4.58,.17,1.3-.25,2.62-.66,4.01-1.25-.56,3.4-1.71,8.81-2.68,12.64l-5.92-11.56Zm-7.77,5.02c1.29-.89,2.23-1.77,3.28-3.1,1.2,2.32,2.38,4.66,3.56,6.99l.91,1.79-7.75-5.68Zm7.26,11.37c-2.79,.28-6.2,.58-9.74,.8,.33-1.44,.64-2.81,.79-4.23,.11-.99,.12-1.98,.11-2.93,2.34,1.52,5.94,4.08,8.83,6.36Zm-2.21,5.16l-5.27,3.13-1.38-2.71c2.16-.24,4.36-.35,6.65-.43Zm3.39,3.7l-2.31,4.45-.12-.08c-.73-.54-1.49-1.08-2.31-1.56,1.36-.89,3.05-1.89,4.74-2.81Zm4.77,5.49c-.26-.03-.52-.04-.79-.04-.43,0-.87,.03-1.29,.07,.68-1.49,1.6-3.33,2.49-4.99v.04c.12,.66,.24,1.32,.37,1.98,.22,1.05,.43,2.11,.65,3.21-.41-.11-.89-.21-1.43-.27Zm-3.64-46.37c3.47-.3,6.81-1.17,10.17-2.64l-1.72,9.26c-.18,.99-.67,1.71-1.57,2.36-3.39,2.42-6.95,2.76-10.88,1.03-.27-.12-.71-.53-1-1.07-1.24-2.31-2.44-4.71-3.59-7.02l-1-1.99c-.16-.31-.31-.63-.47-.94,3.78,.96,7,1.29,10.05,1.02Zm21.15,27.38l-8.82,2.37,6.88-7.52c.1,.59,.23,1.21,.43,1.82,.37,1.17,.92,2.23,1.51,3.33Zm-37.41-4.03c.36,2.97,.21,5.6-.47,8.04-.31,1.1-.79,1.57-1.79,1.72-2.83,.42-5.67,.64-8.89,.71,1.5-5.73,2.8-11.39,2.78-17.42,.98,.65,1.97,1.3,2.95,1.96l.11,.08c1.27,.85,2.55,1.69,3.83,2.53,.94,.62,1.35,1.28,1.49,2.38Zm-7.44,15.26h0c2.22-.11,4.44-.23,6.66-.36,.27-.01,.36,.03,.37,.06l.44,.65c.73,1.08,1.41,2.1,1.96,3.17,.2,.39,.13,.68-.21,.89-2.59,1.63-5.19,3.17-7.95,4.79l-1.2,.71c-.3-1.72-.59-3.35-1.09-4.97-.51-1.67-1.22-3.24-1.91-4.77l2.93-.15Zm3.67,13.48c.76-.45,1.52-.9,2.27-1.36,1.59-.96,3.24-1.94,4.88-2.85,2.08-1.15,4.9-.53,6.42,1.39,.54,.68,.34,1.09,.25,1.26-1.54,3.03-3.15,6.07-4.72,9.02l-.18,.35c-2.05-2.35-5.08-5.42-9.22-7.64l.29-.17Zm16.84,8.16c-.85,0-1.7,.06-2.55,.17,1.28-2.45,2.56-4.9,3.85-7.35,.59-1.12,1.18-1.31,1.69-1.34,.33-.02,.65-.05,1-.09,1.04-.1,2.03-.19,2.92-.08,1.38,.17,2.25,.87,2.66,2.13,.29,.91,.51,1.71,.67,2.44,.5,2.36,.98,4.73,1.46,7.1-2.29-1.09-4.73-1.91-7.43-2.51-1.41-.31-2.85-.47-4.26-.47Zm19.19-20.65c.12,.03,.24,.06,.36,.09l.59,.14c.41,.1,.81,.2,1.22,.31-.17,.27-.32,.54-.45,.82l-1.71-1.36Zm-29.28-36.07c1.18,2.41,2.41,4.9,3.68,7.33,.59,1.13,.52,1.88-.26,2.67-1.21,1.23-2.58,2.38-3.92,3.49l-.34,.28c-.12,.1-.14,.08-.19,.05-2.86-1.91-5.7-3.84-8.61-5.82l-.1-.07c3.59-2.21,7.08-4.9,9.12-9.17l.61,1.24Zm35.67,40.61c-.03-.85,.47-1.83,1.11-2.28,.04-.01,.27-.06,.55-.01,2.42,.34,4.64,.71,6.78,1.13,1.53,.3,2.9,.62,4.17,.98-1.66,2.5-2.82,5.09-3.55,7.89l-6.76-5.33c-.14-.11-.27-.22-.46-.39-.36-.31-.8-.7-1.34-1.01-.21-.12-.48-.35-.51-.98Zm2.64-35.72l-.31,.35c-.96,1.06-1.92,2.12-2.87,3.19-.69,.77-1.19,.94-2.06,.73-1.95-.48-3.8-.94-5.25-2.15-1.08-.9-1.43-1.74-1.22-2.87,.32-1.72,.62-3.44,.93-5.16,.21-1.17,.42-2.35,.63-3.52,.04-.2,.07-.39,.11-.59,3.61,4.1,7.4,6.7,11.82,8.08-.59,.65-1.17,1.3-1.76,1.95Zm-12.85,41.89c1.73-1.63,3.86-2.27,6.54-1.98,.1,.01,.43,.13,.91,.5,3.02,2.34,6.04,4.71,8.71,6.83-4.32,.72-7.82,1.78-10.99,3.35-1.53,.76-2.92,1.66-4.22,2.74l-.67-3.41c-.36-1.86-.73-3.72-1.1-5.58-.2-.97,.06-1.73,.82-2.45Zm24.2-27.03c-2.65,.73-5.65,1.56-8.55,2.31-1.74,.45-2,.33-2.82-1.2-1.04-1.92-1.41-4.07-1.12-6.39,.06-.44,.33-1.02,.76-1.66,.58-.85,1.3-1.65,2.06-2.49l.26-.28c.93-1.04,1.88-2.07,2.83-3.1l.1,.25c.85,2.18,1.66,4.24,2.72,6.24,1.06,2.01,2.36,3.9,3.62,5.72l.37,.54-.23,.06Zm-23.07-43.59c-.5,2.95-1.03,5.86-1.53,8.56-.13,.73-.33,1.46-.55,2.27-.19,.71-.6,1.2-1.33,1.57-6.93,3.57-13.68,4.09-20.65,1.58-1.47-.53-2.51-1.38-3.08-2.52-1.49-2.97-2.92-5.99-4.31-8.92l-.33-.68c12.29,2.27,22.44,1.67,31.77-1.86Zm-55.82,59.9c2.72-.13,5.53-.27,8.31-.47,1.66-.13,2.52,.4,3.3,1.97,1.26,2.57,2.08,5.21,2.44,7.84,.19,1.44-.24,2.49-1.29,3.13-3.38,2.06-6.92,4.13-10.05,5.95l-.93,.54c-.13-1.83-.27-3.71-.58-5.58-.47-2.81-1.13-5.48-1.96-7.95-.6-1.79-1.4-3.52-2.16-5.18l-.05-.11c.96-.05,1.94-.1,2.97-.15Zm78.52,14.26c.49-3.14,2.11-5.8,3.75-8.14,.04-.04,.17-.09,.2-.1,.54-.02,1.07-.03,1.59-.03,.88,0,2.03,.04,3.17,.38,2.23,.65,4.52,1.12,6.72,1.58,.87,.18,1.74,.36,2.6,.55-3.01,4.59-4.98,9.79-5.87,15.48-.07,.47-.13,.93-.19,1.42l-2.61-2.08c-2.57-2.05-5.48-4.37-8.38-6.62-.9-.7-1.16-1.33-.99-2.43Zm-71.37,7.22c.95-.56,1.91-1.11,2.86-1.66,1.92-1.11,3.85-2.23,5.75-3.37,.99-.59,1.84-.61,3.02-.04,3.56,1.69,6.65,4.26,9.73,8.1,.3,.37,.33,.68,.13,1.16-.21,.49-.47,.99-.76,1.53l-.98,1.87c-1.87,3.6-3.74,7.2-5.62,10.79-1.64-2.75-4.08-6.43-7.45-9.47-2.83-2.57-6.04-4.78-10.04-6.94,1.19-.7,2.27-1.34,3.36-1.97Zm37.28,18.59c-2.47-.48-4.97-.73-7.41-.73-3.66,0-7.29,.55-10.8,1.63,.86-1.65,1.72-3.29,2.58-4.94l.27-.52c1.37-2.62,2.75-5.25,4.11-7.87,.34-.66,.84-1.06,1.72-1.38,2.42-.86,5.02-.96,8.18-.28,2.22,.48,4.49,1.35,7.34,2.83,.77,.4,1.25,.92,1.46,1.59,.89,2.85,1.58,5.23,2.17,7.49,.5,1.95,.95,3.94,1.39,5.9-3.48-1.73-7.18-2.99-11.01-3.74Zm50.26-60.68h0c-.95,.26-1.91,.51-2.87,.75-1.85,.47-3.94,1.01-5.93,1.66-1.07,.35-1.66,.16-2.5-.79-2.29-2.61-4.18-5.8-5.76-9.75-.22-.55-.42-1.12-.61-1.68l-.28-.8c-.51-1.43-.24-2.6,.85-3.81l7.32-8.04c2.12,9.06,5.67,16.12,11.09,22.08-.45,.13-.89,.26-1.33,.38Zm-73.91-32.81v.03c1.05,2.21,2.12,4.5,3.25,6.73,1.74,3.45,1.29,6.55-1.4,9.76-1.69,2.02-3.91,3.69-6.97,5.26-.44,.23-1.08,.41-2.17-.22-1.7-.98-3.39-1.99-5.08-2.99l-1.32-.79c-.98-.58-1.95-1.16-2.97-1.78,7.37-3.16,12.62-8.87,16.01-17.4,.22,.47,.44,.93,.66,1.4Zm-24.25,19.4c1.4,8.97,.08,18.14-4.04,28.03-.38,.91-.83,1.14-1.39,1.21l-1.07,.13c-1.98,.24-4.02,.48-6.01,.58-2.71,.13-5.46,.18-8.12,.22l-1.47,.03c5.3-12.9,7.13-26.43,5.57-41.32,1.37,.74,2.74,1.48,4.12,2.23l.25,.14c3.21,1.74,6.53,3.54,9.82,5.27,1.41,.74,2.06,1.72,2.34,3.5Zm-10.27,34.66l2.95-.11c.29-.01,.56-.03,.75,0,1.38,.21,2.11,.67,2.62,1.66,2.09,4.04,3.41,8.39,3.93,12.95,.16,1.36,.26,2.72,.38,4.22,.13,1.72-.39,2.75-1.81,3.55-2.99,1.68-5.97,3.46-8.85,5.17-.99,.59-1.98,1.18-2.98,1.76l-.2-1.16c-.46-2.7-.9-5.25-1.57-7.83-.87-3.34-2.04-6.88-3.69-11.14-.96-2.49-2.08-4.93-3.17-7.3-.2-.43-.4-.86-.59-1.3,4.07-.18,8.15-.33,12.22-.48ZM147.03,42.65c-.8,5.23-1.62,10.47-2.44,15.7l-.73,4.65,.49,.08h0l-.52,.02c-.06,.22-.11,.45-.13,.68-.2,2.23-1.26,3.46-3.65,4.25-6.97,2.3-13.59,3.07-20.23,2.35-1.96-.21-3.95-.51-5.89-.8-1.38-.21-2.77-.42-4.16-.6-1.18-.15-1.93-.71-2.44-1.79-2.79-5.99-5.56-11.98-8.33-17.98,16.12,1.94,31.86-.3,48.06-6.84-.01,.09-.02,.19-.04,.28Zm-2.53,116.13c2.08-1.92,4.61-3.32,7.76-4.25,2.52-.75,5.18-1.28,7.76-1.79,.34-.07,.68-.1,1-.1,.76,0,1.47,.19,2.09,.58,.32,.19,.64,.38,.96,.56,.58,.32,1.12,.63,1.57,.98,2.14,1.66,4.25,3.34,6.37,5.03l2,1.58c-4.8,.81-9.53,2.38-14.1,4.67-4.29,2.15-8.38,4.84-13.18,8.69-.83-3.51-1.64-7.02-2.45-10.54-.08-.34-.14-.69-.21-1.04-.12-.63-.24-1.27-.44-1.94-.24-.8-.18-1.45,.86-2.42Zm57.24-52.79c-1.03,.28-2.06,.56-3.1,.84l-.77,.21c-2.6,.69-5.54,1.48-8.39,2.31-1.12,.33-1.8,.14-2.66-.77-5.36-5.61-8.86-12.58-10.71-21.3-.39-1.85-.09-3.18,.97-4.31,2.98-3.15,5.93-6.31,8.88-9.48l3.46-3.71c3.01,11.16,6.96,23.88,15.19,35.42-.98,.28-1.93,.54-2.87,.8Zm-57.83,88.39c-4.55-1.39-9.51-2.33-16.06-3.06-2.72-.3-5.55-.44-8.94-.44-2.18,0-4.35,.06-6.93,.14-2.22,.08-4.44,.36-6.6,.64-.8,.1-1.6,.21-2.4,.3,.53-1.01,1.07-2.03,1.6-3.04l.07-.13c1.24-2.34,2.52-4.76,3.74-7.17,.67-1.32,1.71-2.21,3.4-2.9,7.37-2.98,15.05-3.14,22.84-.45,1.39,.48,2.73,1.09,4.15,1.74l.12,.06c.88,.4,1.78,.81,2.69,1.19,1.23,.5,1.92,1.4,2.33,3.01,.37,1.46,.74,2.92,1.11,4.38,.52,2.04,1.04,4.09,1.55,6.14,.04,.16,.08,.32,.11,.48-.99-.31-1.89-.6-2.8-.87Zm-40.91-121.27c-2.21,7.31-5.88,12.44-11.23,15.68-1.42,.86-3.03,1.5-4.41,2-1.33,.49-2.73,.39-4.03-.31-4.38-2.33-8.81-4.74-13.1-7.07l-1.94-1.05c3.2-1.93,6.35-4.55,9.84-8.16,5.68-5.88,11.01-12.92,16.75-22.15,.77,1.66,1.54,3.32,2.31,4.98l.2,.43c1.66,3.59,3.32,7.18,5.01,10.76,.84,1.78,1.05,3.43,.61,4.88Zm-28.38,95.13c-.87-.6-1.73-1.2-2.6-1.81,1.44-.85,2.87-1.69,4.31-2.53l.38-.22c2.46-1.44,4.91-2.88,7.35-4.34,.96-.58,1.65-.59,2.72-.06,6.67,3.3,11.6,7.35,15.08,12.38,.76,1.1,1.4,2.3,2.09,3.58l.52,.97c.41,.76,.43,1.52,.05,2.26-1.89,3.67-3.84,7.35-5.73,10.91l-.27,.5c-.75-1.01-1.52-2.05-2.34-3.05-4.87-5.92-10.84-10.72-16.58-15.02-1.66-1.25-3.35-2.42-4.99-3.56Zm74.74,10.62c7.01-5.68,13.35-9.29,19.94-11.37,3.12-.98,5.94-1.51,8.62-1.61,1.26-.04,2.14,.24,2.98,.93,1.56,1.29,3.17,2.55,4.75,3.79,.85,.67,1.71,1.34,2.56,2.02-8.07,2.78-15.3,7.22-22.02,11.56-3.43,2.21-6.82,4.58-10.16,6.9-1.5,1.05-3,2.09-4.51,3.13l-.07-.28c-1.03-3.96-2.09-8.05-3.03-12.09-.32-1.38-.08-2.16,.95-2.99Zm43.16-12.72c-.19,.97-.38,1.94-.59,2.9-.02,.08-.04,.16-.06,.25-2.73-2.15-5.44-4.31-8.15-6.48-1.54-1.24-2.1-2.71-1.82-4.77,.79-5.76,2.68-10.8,5.8-15.4,.56-.83,.7-.92,1.02-.92,.22,0,.54,.06,.94,.15,1.82,.39,3.63,.78,5.45,1.17,2.01,.43,4.03,.86,6.04,1.3-4.21,5.34-6.2,11.52-7.59,16.9-.42,1.64-.75,3.3-1.06,4.91Zm33.52-66.75c-1.61,.45-3.12,.87-4.63,1.28-3.12,.86-6.24,1.71-9.37,2.55-.28,.08-.58,.12-.92,.18-.34,.06-.69,.11-1.03,.19-.34,.08-.49,.05-.74-.29l-.65-.86c-.69-.92-1.35-1.78-1.94-2.69-3.4-5.23-6.28-11.38-8.83-18.81-1.4-4.09-2.59-8.34-3.74-12.45l-.06-.22c-.52-1.85-.13-3.34,1.22-4.67,2.26-2.24,4.5-4.5,6.74-6.76l2.65-2.68,.16,.56c.72,2.53,1.4,4.92,2.21,7.36,1.32,4.01,2.53,7.28,3.8,10.32,1.48,3.52,3.09,6.95,4.79,10.17,1.69,3.19,3.58,6.38,5.62,9.49,1.41,2.16,2.92,4.2,4.53,6.37l.63,.86-.41,.11Zm-26.25-47.19l-.41,.41c-2.38,2.36-4.83,4.79-7.18,7.26-.8,.84-1.35,.96-2.66,.59-13.27-3.74-24.96-11.09-35.72-22.48-.83-.87-1.08-1.66-.89-2.79,.41-2.53,.77-5.07,1.12-7.53,.21-1.45,.41-2.9,.63-4.35,0-.05,.01-.09,.02-.14,7.5,6.4,14.5,11.62,21.38,15.97,5.5,3.47,12.89,7.75,21.26,10.06,1.13,.31,2.26,.51,3.41,.71,.39,.07,.77,.13,1.16,.2-.7,.7-1.41,1.4-2.11,2.1Zm-21.34,9.43c2.45,1.11,4.91,1.99,7.54,2.92l1.19,.42c-1.3,1.39-2.6,2.78-3.9,4.16-3,3.19-6.1,6.49-9.12,9.85-1.02,1.14-1.95,1.41-3.54,1.04-2.87-.66-5.73-1.87-9.27-3.92-3.73-2.16-7.52-4.85-11.92-8.48-.97-.8-1.21-1.53-.95-2.89,.5-2.67,.89-5.4,1.29-8.09l.36-2.47c.27-1.81,.54-3.62,.8-5.43l.05-.32c.27-1.81,.53-3.62,.8-5.44l.52,.5c2.04,1.95,3.97,3.8,6.08,5.55,3.22,2.66,6.42,4.99,9.51,6.93,3.31,2.08,6.87,3.98,10.57,5.66Zm-28.77-37.55c-.23,1.58-.47,3.17-.71,4.75-.31,2-.61,4-.89,6-.2,1.45-.69,2.11-1.95,2.63-7.86,3.22-15.4,5.35-23.07,6.51-3.85,.58-8.9,1.24-13.88,1.11-2.46-.06-4.99-.36-7.44-.65-1.34-.16-2.87-.34-4.37-.48-.61-.05-.91-.27-1.16-.82-1.7-3.71-3.45-7.58-5.18-11.49,21.17-.4,40.43-3.36,58.82-9.04-.05,.51-.11,1-.18,1.48Zm-58.44,24.65c-3.65,5.73-8.61,13.17-14.55,19.84-3.43,3.84-6.51,6.64-9.72,8.81-.33,.23-.68,.43-1.03,.63-.44,.25-.87,.51-1.29,.79-1.11,.76-2.01,.77-3.42,.04-3.21-1.66-6.5-3.25-9.68-4.8-1.13-.55-2.26-1.1-3.4-1.65,7.07-4.36,13.74-9.14,19.84-14.21,5.15-4.28,11.73-10.14,16.96-17.59,1-1.43,1.88-2.86,2.79-4.35,.24,.55,.49,1.1,.73,1.65l.12,.26c.95,2.15,1.93,4.37,2.94,6.55,.7,1.52,.63,2.61-.27,4.02Zm-46.87,85.14h.17c2.68-.09,5.45-.18,8.18-.31,1.75-.08,2.82,.54,3.56,2.09,2.73,5.69,5.47,11.85,7.04,18.43,.52,2.2,.9,4.49,1.26,6.71l.26,1.61c.27,1.62-.29,2.71-1.86,3.63-2.29,1.34-4.56,2.7-6.84,4.06l-4.19,2.5c-.93,.55-1.85,1.11-2.79,1.65-.05,.03-.09,.05-.14,.08,0-.06,0-.12,0-.18,0-.19-.02-.39-.03-.58-.95-12.45-3.45-24.34-7.44-35.33-.24-.66-.5-1.31-.78-2-.21-.53-.43-1.06-.63-1.59-.07-.2-.15-.4-.21-.61,1.48-.05,2.96-.1,4.44-.15Zm9.64,43.17c2.8-1.66,5.49-3.25,8.18-4.83,1.31-.77,2.41-1.37,3.46-1.89,1.39-.69,2.5-.63,3.71,.19,7.05,4.8,14.41,10.16,20.56,16.71,1.27,1.36,2.46,2.87,3.61,4.33,.54,.68,1.07,1.36,1.62,2.03,.61,.75,.65,1.48,.12,2.5-2.15,4.18-4.44,8.59-7.2,13.83-.07-.1-.13-.2-.2-.3-4.63-7.31-9.56-13.39-15.06-18.6-6.51-6.17-13.09-10.5-20.08-13.22l1.28-.76Zm40.91,30.36l.05-.1c1.39-2.64,2.77-5.29,4.13-7.95,.77-1.51,1.74-2.21,3.34-2.43,8.32-1.15,16.02-1.42,23.55-.84,5.63,.44,10.75,1.33,15.66,2.73,1.07,.31,2.17,.68,3.29,1.07,.82,.28,1.64,.56,2.47,.82,.55,.17,.81,.42,.95,.91,1.38,4.88,2.75,9.77,4.11,14.66,0,0-.02,0-.03,0-8.44-2.58-17.41-4.62-26.69-6.07-5.92-.92-11.16-1.4-16-1.47-.4,0-.79,0-1.18,0-5.91,0-10.82,.61-15.34,1.93,.56-1.08,1.13-2.16,1.7-3.24Zm59.96-9.7l.71-.49c8.19-5.7,16.65-11.59,25.67-16.2,2.25-1.15,4.69-2.12,7.05-3.06,.93-.37,1.87-.74,2.8-1.13,1.06-.43,2.03-.25,3.1,.59,3.08,2.39,6.13,4.83,8.75,6.95-.16,.08-.31,.15-.47,.22-8.49,3.79-16.65,8.08-24.23,12.77-7.45,4.6-13.18,8.89-18.04,13.51-1.11,1.05-2.16,2.16-3.27,3.32-1.07-3.75-2.12-7.51-3.17-11.26-.17-.63-.32-1.19-.39-1.72-.21-1.7,.16-2.54,1.49-3.48Zm41.84-27.76c.94-4.88,2.02-10.05,3.98-14.94,1.33-3.32,2.91-6.03,4.81-8.27,.71-.83,1.31-1.16,2.16-1.16,.31,0,.66,.04,1.07,.13,3.22,.69,6.51,1.22,9.7,1.73l.11,.02c1.03,.16,2.05,.33,3.08,.5-5.89,7.89-10.12,15.5-12.94,23.26-.71,1.97-1.27,3.99-1.81,5.94-.22,.8-.44,1.6-.67,2.4-.08,.26-.15,.53-.22,.79l-.03-.02c-2.46-1.86-5.09-3.86-7.64-5.92-1.52-1.23-1.96-2.48-1.58-4.45Zm12.92-55.78c.03-.2,.07-.39,.12-.61,.05-.24,.1-.48,.14-.72,.49-2.91,2.14-4.6,5.34-5.48,2.71-.74,5.43-1.47,8.14-2.2l5.06-1.36c-2.29,5.21-4.01,10.49-5.1,15.7-1.74,8.32-1.87,16.1-.37,23.76-4.49-.76-8.99-1.54-13.47-2.33-.11-.02-.2-.04-.28-.05,0-.06-.01-.12-.02-.2-.49-8.24-1.04-17.58,.43-26.51Z"/></g></svg>