<?xml version="1.0" encoding="UTF-8"?><svg id="_이어_2" xmlns="http://www.w3.org/2000/svg" viewBox="0 0 131.48 96.29"><defs><style>.cls-1{fill:#fff;}</style></defs><g id="_이어_1-2"><g><g><path class="cls-1" d="M56.86,73.74c1.96,0,3.56-1.6,3.56-3.56s-1.6-3.56-3.56-3.56-3.56,1.6-3.56,3.56,1.6,3.56,3.56,3.56Zm0-3.12c-.24,0-.44-.2-.44-.44s.2-.44,.44-.44,.44,.2,.44,.44-.2,.44-.44,.44Z"/><path class="cls-1" d="M126.25,32.81h-12.53V8.31c0-4.58-3.73-8.31-8.31-8.31H8.31C3.73,0,0,3.73,0,8.31v63.03c0,4.33,3.53,7.86,7.86,7.86h30.73c0,1.43-.1,3.25-.46,5.04-.46,2.29-2.23,4.38-4.86,5.72-1.42,.73-2.13,2.21-1.78,3.69,.37,1.55,1.83,2.63,3.53,2.63h43.67c1.71,0,3.16-1.08,3.53-2.63,.36-1.48-.36-2.96-1.78-3.69-2.63-1.35-4.4-3.43-4.86-5.72-.36-1.78-.46-3.6-.46-5.04h15.83v11.86c0,2.88,2.34,5.22,5.22,5.22h30.07c2.88,0,5.22-2.34,5.22-5.22V38.04c0-2.88-2.34-5.22-5.22-5.22Zm-52.32,58.47H39.79c1.67-1.76,2.8-3.85,3.25-6.06,.44-2.18,.56-4.35,.56-6.02h26.53c0,1.67,.12,3.84,.56,6.02h0c.45,2.21,1.57,4.3,3.25,6.06Zm17.03-25.13v8.05H7.86c-1.58,0-2.86-1.28-2.86-2.86v-5.19H90.96Zm20.26,22.29c-.25,0-.45-.2-.45-.45s.2-.45,.45-.45,.45,.2,.45,.45-.2,.45-.45,.45Zm3.45-.45c0-1.71-1.25-3.12-2.89-3.39h14.63v-5h-30.39v5h14.63c-1.63,.27-2.89,1.68-2.89,3.39,0,1.55,1.04,2.85,2.45,3.28h-14.04c-.12,0-.22-.1-.22-.22V38.04c0-.12,.1-.22,.22-.22h30.07c.12,0,.22,.1,.22,.22v53.03c0,.12-.1,.22-.22,.22h-14.04c1.41-.43,2.45-1.73,2.45-3.28Zm-5.95-79.69v24.5h-12.53c-2.88,0-5.22,2.34-5.22,5.22v23.12H5V8.31c0-1.83,1.49-3.31,3.31-3.31H105.41c1.83,0,3.31,1.49,3.31,3.31Z"/></g><path class="cls-1" d="M114.74,38.72h-7.04c-1.38,0-2.5,1.12-2.5,2.5s1.12,2.5,2.5,2.5h7.04c1.38,0,2.5-1.12,2.5-2.5s-1.12-2.5-2.5-2.5Z"/></g></g></svg>