<svg width="80" height="80" viewBox="0 0 80 80" fill="none" xmlns="http://www.w3.org/2000/svg">
<g clip-path="url(#clip0_5066_18019)">
<rect width="80" height="80" rx="40" fill="white"/>
<g opacity="0.1" filter="url(#filter0_d_5066_18019)">
<path fill-rule="evenodd" clip-rule="evenodd" d="M40 80C62.0914 80 80 62.0914 80 40C80 17.9086 62.0914 0 40 0C17.9086 0 0 17.9086 0 40C0 62.0914 17.9086 80 40 80Z" fill="white"/>
</g>
<g clip-path="url(#clip1_5066_18019)">
<path d="M32.8553 19.0971C25.0683 22.9906 22.04 32.8327 25.8257 40.2951C27.5564 43.6477 34.1537 55.2205 37.723 61.2769C38.6962 63.0075 41.1843 63.0075 42.1575 61.2769C45.6187 55.2205 52.2153 43.5397 54.0547 40.2951C56.4341 35.8606 56.3263 30.7774 54.0547 26.1272C50.0517 18.3402 40.6433 15.2035 32.8553 19.0971ZM39.9936 40.0788C36.2079 40.0788 33.1798 37.0505 33.1798 33.2649C33.1798 29.4792 36.2081 26.4511 39.9936 26.4511C43.7792 26.4511 46.8075 29.4794 46.8075 33.2649C46.8075 36.9427 43.7792 40.0788 39.9936 40.0788Z" fill="#037DD6"/>
</g>
</g>
<defs>
<filter id="filter0_d_5066_18019" x="-24" y="-20" width="128" height="128" filterUnits="userSpaceOnUse" color-interpolation-filters="sRGB">
<feFlood flood-opacity="0" result="BackgroundImageFix"/>
<feColorMatrix in="SourceAlpha" type="matrix" values="0 0 0 0 0 0 0 0 0 0 0 0 0 0 0 0 0 0 127 0" result="hardAlpha"/>
<feOffset dy="4"/>
<feGaussianBlur stdDeviation="12"/>
<feComposite in2="hardAlpha" operator="out"/>
<feColorMatrix type="matrix" values="0 0 0 0 0.847162 0 0 0 0 0.847162 0 0 0 0 0.847162 0 0 0 0.2 0"/>
<feBlend mode="normal" in2="BackgroundImageFix" result="effect1_dropShadow_5066_18019"/>
<feBlend mode="normal" in="SourceGraphic" in2="effect1_dropShadow_5066_18019" result="shape"/>
</filter>
<clipPath id="clip0_5066_18019">
<rect width="80" height="80" rx="40" fill="white"/>
</clipPath>
<clipPath id="clip1_5066_18019">
<rect width="32" height="46" fill="white" transform="translate(24 17)"/>
</clipPath>
</defs>
</svg>
