<?xml version="1.0" encoding="UTF-8"?><svg id="_이어_2" xmlns="http://www.w3.org/2000/svg" viewBox="0 0 915.11 215.87"><defs><style>.cls-1{fill:#fff;}.cls-2{fill:#bf0a00;}</style></defs><g id="_이어_1-2"><g><g><polygon class="cls-2" points="119.59 0 0 82.81 55.42 82.81 119.59 0"/><polygon class="cls-2" points="119.59 170.46 0 87.65 55.42 87.65 119.59 170.46"/><polygon points="92.49 215.87 212.08 133.06 156.66 133.06 92.49 215.87"/><polygon points="92.49 45.41 212.08 128.22 156.66 128.22 92.49 45.41"/></g><g><path class="cls-1" d="M252.85,139.81l4.37-9.21c6.14,5.55,16.65,9.56,27.27,9.56,14.29,0,20.43-5.55,20.43-12.75,0-20.19-50.06-7.44-50.06-38.14,0-12.75,9.92-23.61,31.64-23.61,9.68,0,19.72,2.6,26.57,7.32l-3.9,9.45c-7.2-4.6-15.35-6.73-22.67-6.73-14.05,0-20.07,5.9-20.07,13.11,0,20.19,50.06,7.56,50.06,37.9,0,12.63-10.15,23.5-32,23.5-12.63,0-25.03-4.25-31.64-10.39Z"/><path class="cls-1" d="M400.44,95.42c0,17.95-12.99,28.81-34.48,28.81h-20.43v25.03h-11.81V66.61h32.23c21.49,0,34.48,10.86,34.48,28.81Zm-11.81,0c0-11.81-7.91-18.54-23.02-18.54h-20.07v37.07h20.07c15.11,0,23.02-6.73,23.02-18.54Z"/><path class="cls-1" d="M477.78,138.99v10.27h-59.98V66.61h58.33v10.27h-46.52v25.39h41.44v10.04h-41.44v26.68h48.17Z"/><path class="cls-1" d="M567.98,66.61v82.65h-9.68l-49.59-61.63v61.63h-11.81V66.61h9.68l49.59,61.63v-61.63h11.81Z"/><path class="cls-1" d="M592.78,66.61h34.83c26.57,0,44.63,16.77,44.63,41.33s-18.06,41.33-44.63,41.33h-34.83V66.61Zm34.12,72.38c20.43,0,33.53-12.52,33.53-31.05s-13.11-31.05-33.53-31.05h-22.32v62.11h22.32Z"/><path class="cls-1" d="M750.28,138.99v10.27h-59.98V66.61h58.33v10.27h-46.52v25.39h41.44v10.04h-41.44v26.68h48.17Z"/><path class="cls-1" d="M761.85,139.81l4.37-9.21c6.14,5.55,16.65,9.56,27.27,9.56,14.29,0,20.43-5.55,20.43-12.75,0-20.19-50.06-7.44-50.06-38.14,0-12.75,9.92-23.61,31.64-23.61,9.68,0,19.72,2.6,26.57,7.32l-3.9,9.45c-7.2-4.6-15.35-6.73-22.67-6.73-14.05,0-20.07,5.9-20.07,13.11,0,20.19,50.06,7.56,50.06,37.9,0,12.63-10.15,23.5-32,23.5-12.63,0-25.03-4.25-31.64-10.39Z"/><path class="cls-1" d="M869.65,112.54l-15.11,15.35v21.37h-11.81V66.61h11.81v46.17l44.87-46.17h13.46l-35.3,37.19,37.55,45.46h-13.81l-31.64-36.72Z"/></g></g></g></svg>