<?xml version="1.0" encoding="UTF-8"?><svg id="_이어_2" xmlns="http://www.w3.org/2000/svg" viewBox="0 0 648.69 81.42"><defs><style>.cls-1{fill:#fff;}</style></defs><g id="_이어_1-2"><g><path class="cls-1" d="M36.34,12.79c-12.79-.11-22.09,9.87-21.98,27.81-.11,17.94,9.08,27.93,22.43,28.04,12-.11,19.51-7.29,19.74-18.62h-18.39v-11.21h32.08v9.42c.11,20.52-13.91,33.2-33.65,33.2C14.8,81.42,0,65.83,0,40.6S15.48-.11,36.11,0c17.61-.11,31.07,10.77,33.65,26.24h-14.58c-2.69-8.3-9.2-13.57-18.84-13.46Z"/><path class="cls-1" d="M117.54,81.42c-20.86,0-36.34-15.25-36.34-40.82S96.68-.11,117.54,0c20.75-.11,36.45,15.03,36.34,40.6,.11,25.68-15.59,40.82-36.34,40.82Zm0-12.79c13.01-.11,22.09-9.87,21.98-28.04,.11-18.06-8.97-27.93-21.98-27.81-12.9-.11-22.09,9.76-21.98,27.81-.11,18.17,9.08,27.93,21.98,28.04Z"/><path class="cls-1" d="M166.66,.9h14.13V68.41h34.99v11.89h-49.12V.9Z"/><path class="cls-1" d="M227.44,80.3V.9h27.37c23.66,.11,37.91,14.92,37.91,39.7s-14.24,39.7-38.36,39.7h-26.92Zm26.24-12.34c16.49,0,24.9-9.2,24.9-27.37s-8.41-27.25-24.67-27.37h-12.34v54.73h12.11Z"/><path class="cls-1" d="M333.54,12.11c-8.97-.11-14.36,4.26-14.36,10.32-.11,6.62,6.95,9.42,13.46,10.99l7.4,1.79c11.89,2.8,23.33,9.08,23.33,22.88s-10.99,23.44-30.06,23.33c-18.39,.11-30.06-8.75-30.73-24.45h14.13c.56,8.3,7.51,12.34,16.6,12.34s15.81-4.6,15.7-11.44c.11-6.17-5.61-8.75-14.13-10.99l-8.97-2.24c-13.12-3.48-21.2-9.98-21.31-21.31C304.72,9.2,317.17-.11,333.77,0c16.82-.11,28.26,9.42,28.49,22.88h-13.68c-.67-6.95-6.39-10.88-15.03-10.77Z"/><path class="cls-1" d="M375.26,.9h51.59V13.01h-37.46v21.53h34.77v12.11h-34.77v21.76h37.68v11.89h-51.81V.9Z"/><path class="cls-1" d="M471.71,63.48h.67L493.02,.9h15.7l-27.81,79.4h-17.72L435.37,.9h15.48l20.86,62.58Z"/><path class="cls-1" d="M518.37,.9h51.59V13.01h-37.46v21.53h34.77v12.11h-34.77v21.76h37.68v11.89h-51.81V.9Z"/><path class="cls-1" d="M648.69,80.3h-12.56l-37.68-54.06h-.67v54.06h-14.13V.9h12.79l37.46,54.28h.67V.9h14.13V80.3Z"/></g></g></svg>