<?xml version="1.0" encoding="UTF-8"?><svg id="_이어_2" xmlns="http://www.w3.org/2000/svg" xmlns:xlink="http://www.w3.org/1999/xlink" viewBox="0 0 895.9 308.26"><defs><style>.cls-1{fill:#fff;}.cls-2{fill:url(#_제_그라디언트_332);}</style><linearGradient id="_제_그라디언트_332" x1="179.11" y1="308.26" x2="179.11" y2="0" gradientTransform="matrix(1, 0, 0, 1, 0, 0)" gradientUnits="userSpaceOnUse"><stop offset="0" stop-color="#bff5ff"/><stop offset=".1" stop-color="#cff7f9"/><stop offset=".27" stop-color="#e4faf2"/><stop offset=".45" stop-color="#f3fded"/><stop offset=".67" stop-color="#fcfeea"/><stop offset="1" stop-color="#ffffea"/></linearGradient></defs><g id="_이어_1-2"><g><path class="cls-2" d="M345.01,124.26h0c-13.52,1.1-43.85,11.96-46.01-1.42C287.72,52.95,234.13,0,169.71,0,97.1,0,38.23,67.27,38.23,150.26c0,12.46,1.34,24.55,3.84,36.13l-13.8-2.57c-12.19-2.27-24.14,5.43-27.42,17.65-3.28,12.23,3.22,24.87,14.91,29.01l53.09,18.78c21.18,29.85,61.6,63.78,134.7,58.43,5.75-.25,11.45-.88,17.07-1.88h.05c63.63-11.34,117.56-68.91,133.59-128.67,4.66-17.37,8.68-54.35-9.24-52.89Z"/><rect x="83.91" y="87.98" width="44.7" height="72.56" rx="22.35" ry="22.35"/><path d="M170.02,160.54c-13.43,0-24.36-10.93-24.36-24.36v-9.12c0-2.77,2.24-5.01,5.01-5.01s5.01,2.24,5.01,5.01v9.12c0,7.91,6.43,14.34,14.34,14.34s14.34-6.43,14.34-14.34v-9.12c0-2.77,2.24-5.01,5.01-5.01s5.01,2.24,5.01,5.01v9.12c0,13.43-10.93,24.36-24.36,24.36Z"/></g><g><path class="cls-1" d="M554.58,262.73h-40.35l-11.02-28.08h-47.01l-10.19,28.08h-40.14l46.02-124.16c6.72-18.14,24.02-30.18,43.37-30.18h.47l58.86,154.34Zm-74.46-109.2l-13.94,47.84h27.04l-13.1-47.84Z"/><path class="cls-1" d="M596.09,105.28h4.25v157.46h-36.19v-125.51c0-17.64,14.3-31.94,31.94-31.94Z"/><path class="cls-1" d="M644.56,148.33h8.61v114.4h-35.98v-87.03c0-15.12,12.26-27.37,27.37-27.37Z"/><path class="cls-1" d="M661.7,148.33h38.9l20.59,64.9,12.16-38.31c5.02-15.83,19.72-26.59,36.33-26.59h10.8l-43.89,114.4h-31.62l-43.26-114.4Z"/><path class="cls-1" d="M784.42,206.16c0-9.57,1.38-18.16,4.16-25.79,2.77-7.62,6.66-14.14,11.65-19.55,4.99-5.27,10.99-9.36,17.99-12.27,7-2.91,14.73-4.37,23.19-4.37s16.26,1.53,22.98,4.58c6.72,3.05,12.44,7.35,17.16,12.9,4.58,5.41,8.11,11.96,10.61,19.66,2.5,7.7,3.74,16.12,3.74,25.27l-.83,11.44h-75.09c.42,5.41,2.84,9.5,7.28,12.27,4.44,2.78,9.64,4.16,15.6,4.16,5.41,0,10.09-1.04,14.04-3.12l.12-.06c7.95-4.23,17.63-3.37,24.43,2.53l9.87,8.56c-6.24,8.46-13.52,14.66-21.84,18.62s-17.68,5.93-28.08,5.93c-8.46,0-16.19-1.38-23.19-4.16-7-2.77-13.07-6.79-18.2-12.06-5.13-5.27-9.08-11.65-11.86-19.14-2.78-7.49-4.02-15.94-3.74-25.38Zm76.34-16.02c-.83-4.71-3.09-8.25-6.76-10.61-3.68-2.36-7.8-3.54-12.38-3.54-5.27,0-9.71,1.25-13.31,3.74-3.61,2.5-5.69,5.96-6.24,10.4h38.69Z"/><path class="cls-1" d="M654.95,111.1c.2-.9,.3-1.83,.3-2.78v-16.35c0-7.2-5.84-13.04-13.04-13.04h-16.35c-7.2,0-13.04,5.84-13.04,13.04v16.35c0,1.32,.2,2.59,.56,3.79,.75,10.86,13.53,19.51,29.18,19.51s29.22-9.19,29.22-20.52h-16.83Z"/></g></g></svg>