<?xml version="1.0" encoding="UTF-8"?><svg id="_이어_2" xmlns="http://www.w3.org/2000/svg" viewBox="0 0 723.57 114.26"><defs><style>.cls-1{fill:#fff;}</style></defs><g id="_이어_1-2"><g><g><path class="cls-1" d="M161.85,17.59h58.99v11.3h-22.8v62.76h-13.18V28.89h-23.01v-11.3Z"/><path class="cls-1" d="M220.33,64.25c-.1-17.36,10.25-28.76,26.57-28.87,16.11,.1,26.46,11.51,26.57,28.87-.1,17.05-10.46,28.56-26.57,28.45-16.32,.1-26.67-11.4-26.57-28.45Zm26.57,17.99c8.89,.1,13.28-7.95,13.39-18.2-.1-10.15-4.5-18.3-13.39-18.2-9-.1-13.49,8.05-13.39,18.2-.1,10.25,4.39,18.3,13.39,18.2Z"/><path class="cls-1" d="M318.86,36.21h12.97v55.44h-12.55v-9.83h-.63c-2.51,6.17-8.26,10.56-16.74,10.46-10.88,.1-18.41-7.43-18.41-20.71V36.21h12.97v33.26c0,7.11,4.29,11.51,10.46,11.51s11.92-4.18,11.92-12.76V36.21Z"/><path class="cls-1" d="M342.08,64.25c-.1-17.05,10.25-28.76,26.36-28.87,13.6,.1,23.01,7.95,23.85,19.87h-12.34c-1.05-5.23-4.92-9.31-11.3-9.41-8.05,.1-13.49,6.9-13.39,17.99-.1,11.51,5.23,18.3,13.39,18.2,5.75,.1,10.04-3.24,11.3-9.21h12.34c-.94,11.61-9.83,19.98-23.64,19.87-16.63,.1-26.67-11.82-26.57-28.45Z"/><path class="cls-1" d="M415.1,91.65h-12.97V17.59h12.76v28.03h.63c2.62-6.28,7.95-10.15,16.53-10.25,11.51,.1,19.04,7.53,19.04,20.92v35.35h-12.97V58.39c0-7.53-4.08-11.92-10.88-11.92s-12.13,4.6-12.13,12.76v32.43Z"/><path class="cls-1" d="M489.16,17.59h13.18V51.69h1.05l28.87-34.1h16.32l-28.66,33.26,28.87,40.79h-15.9l-22.17-31.8-8.37,9.83v21.97h-13.18V17.59Z"/><path class="cls-1" d="M550.14,64.25c-.1-17.15,10.36-28.76,26.15-28.87,13.6,.1,25.31,8.58,25.31,28.03v4.18h-38.7c.31,9.52,5.75,15.06,14.23,15.06,5.75,0,9.52-2.51,11.3-5.86h12.76c-2.41,9.62-11.3,16-24.27,15.9-16.63,.1-26.88-11.09-26.78-28.45Zm38.91-5.65c0-7.43-5.02-12.97-12.55-12.97s-13.07,5.86-13.6,12.97h26.15Z"/><path class="cls-1" d="M609.55,64.25c-.1-17.15,10.36-28.76,26.15-28.87,13.6,.1,25.31,8.58,25.31,28.03v4.18h-38.7c.31,9.52,5.75,15.06,14.23,15.06,5.75,0,9.52-2.51,11.3-5.86h12.76c-2.41,9.62-11.3,16-24.27,15.9-16.63,.1-26.88-11.09-26.78-28.45Zm38.91-5.65c0-7.43-5.02-12.97-12.55-12.97s-13.07,5.86-13.6,12.97h26.15Z"/><path class="cls-1" d="M671.27,36.21h12.76v9h.84c1.99-3.87,6.07-9.73,15.9-9.83,12.76,.1,22.8,10.15,22.8,28.66s-9.73,28.56-22.8,28.66c-9.62-.1-13.91-5.75-15.9-9.83h-.63v29.5h-12.97V36.21Zm25.94,45.81c8.58-.1,13.18-7.64,13.18-18.2s-4.5-17.68-13.18-17.78c-8.58,.1-13.18,7.11-13.18,17.78s4.71,18.1,13.18,18.2Z"/></g><g><path class="cls-1" d="M74.1,.09H2.59C1.16,.09,0,1.25,0,2.69V15.24c0,1.43,1.16,2.59,2.59,2.59H26.88c1.43,0,2.59,1.16,2.59,2.59V96.44c0,9.8,7.95,17.74,17.74,17.74h0V20.42c0-1.43,1.16-2.59,2.59-2.59h24.29c1.43,0,2.59-1.16,2.59-2.59V2.68c0-1.43-1.16-2.59-2.59-2.59Z"/><path class="cls-1" d="M78.7,57.09L118.7,0h0c-13.3,0-25.76,6.49-33.39,17.38l-27.82,39.71v.09l27.83,39.71c7.63,10.89,20.09,17.38,33.39,17.38h0l-40-57.09v-.09Z"/></g></g></g></svg>