<?xml version="1.0" encoding="UTF-8"?><svg id="_이어_2" xmlns="http://www.w3.org/2000/svg" viewBox="0 0 920.43 215.87"><defs><style>.cls-1{fill:#fff;}.cls-2{fill:#bf0a00;}</style></defs><g id="_이어_1-2"><g><g><path class="cls-1" d="M296.53,82.03c7.85,0,14.08,2.48,19.61,7.82l.71,.68,7.57-7.57-.64-.71c-6.56-7.28-16.12-11.13-27.64-11.13-22.31,0-38.5,15.48-38.5,36.8s16.11,36.8,38.3,36.8c10.36,0,20.26-3.33,27.15-9.14l.36-.3v-28.77h-11.6v23.25c-4.45,2.73-9.5,4.05-15.4,4.05-15.53,0-26.8-10.89-26.8-25.9s11.31-25.9,26.9-25.9Z"/><path class="cls-1" d="M373.13,71.13c-21.84,0-38.3,15.82-38.3,36.8s16.47,36.8,38.3,36.8,38.1-15.82,38.1-36.8-16.38-36.8-38.1-36.8Zm0,62.7c-15.24,0-26.3-10.89-26.3-25.9s11.06-25.9,26.3-25.9,26.1,10.89,26.1,25.9-10.98,25.9-26.1,25.9Z"/><polygon class="cls-1" points="436.53 71.93 424.53 71.93 424.53 143.94 474.43 143.94 474.43 133.24 436.53 133.24 436.53 71.93"/><path class="cls-1" d="M514.43,71.93h-30.5v72h30.5c23.21,0,38.8-14.47,38.8-36s-15.59-36-38.8-36Zm-18.5,10.7h17.9c16.65,0,27.4,9.93,27.4,25.3s-10.76,25.3-27.4,25.3h-17.9v-50.6Z"/><path class="cls-1" d="M617.74,102.8c-9.24-2.24-17.22-4.17-17.22-11.06,0-6.32,5.98-10.1,16-10.1,6.44,0,13.07,1.97,18.66,5.54l1.01,.64,4.06-9.85-.66-.46c-5.79-3.99-14.41-6.38-23.07-6.38-20.5,0-27.8,10.85-27.8,21,0,15.14,13.43,18.4,25.27,21.27,9.19,2.23,17.13,4.16,17.13,11.03,0,6.23-5.94,9.8-16.3,9.8-8.36,0-17.16-3.08-22.43-7.84l-1-.9-4.59,9.68,.54,.5c5.93,5.51,16.72,9.07,27.48,9.07,20.74,0,28.1-11.26,28.1-20.9,0-14.94-13.38-18.18-25.18-21.04Z"/><polygon class="cls-1" points="667.52 112.64 702.63 112.64 702.63 102.14 667.52 102.14 667.52 82.63 706.93 82.63 706.93 71.93 655.52 71.93 655.52 143.94 708.33 143.94 708.33 133.24 667.52 133.24 667.52 112.64"/><polygon class="cls-1" points="747.93 127.95 723.38 71.93 710.39 71.93 742.07 143.94 753.28 143.94 784.86 71.93 772.67 71.93 747.93 127.95"/><polygon class="cls-1" points="803.22 112.64 838.32 112.64 838.32 102.14 803.22 102.14 803.22 82.63 842.62 82.63 842.62 71.93 791.22 71.93 791.22 143.94 844.02 143.94 844.02 133.24 803.22 133.24 803.22 112.64"/><polygon class="cls-1" points="908.42 71.93 908.42 122.3 867.9 71.93 858.22 71.93 858.22 143.94 870.22 143.94 870.22 93.57 910.75 143.94 920.43 143.94 920.43 71.93 908.42 71.93"/></g><g><polygon class="cls-2" points="119.59 0 0 82.81 55.42 82.81 119.59 0"/><polygon class="cls-2" points="119.59 170.46 0 87.65 55.42 87.65 119.59 170.46"/><polygon points="92.49 215.87 212.08 133.06 156.66 133.06 92.49 215.87"/><polygon points="92.49 45.41 212.08 128.22 156.66 128.22 92.49 45.41"/></g></g></g></svg>