<?xml version="1.0" encoding="utf-8"?>
<!-- Generator: Adobe Illustrator 27.6.1, SVG Export Plug-In . SVG Version: 6.00 Build 0)  -->
<svg version="1.1" id="_레이어_2" xmlns="http://www.w3.org/2000/svg" xmlns:xlink="http://www.w3.org/1999/xlink" x="0px"
	 y="0px" viewBox="0 0 8.8 14.5" style="enable-background:new 0 0 8.8 14.5;" xml:space="preserve">
<style type="text/css">
	.st0{fill:#FFFFFF;}
</style>
<g id="Layer_1">
	<path class="st0" d="M0.2,10.4C0,10.2,0,9.9,0.2,9.7s0.5-0.2,0.7,0l3.1,3.1V0.5C3.9,0.2,4.1,0,4.4,0s0.5,0.2,0.5,0.5v12.3L8,9.8
		c0.2-0.2,0.5-0.2,0.7,0s0.2,0.5,0,0.7l-3.9,3.9c0,0,0,0,0,0l0,0c0,0,0,0,0,0l0,0l0,0l0,0l0,0l0,0l0,0l0,0l0,0l0,0
		c-0.1,0.1-0.2,0.1-0.2,0.1s-0.2,0-0.2-0.1l0,0l0,0l0,0l0,0l0,0l0,0l0,0l0,0l0,0l0,0c0,0,0,0,0,0l0,0c0,0,0,0,0,0L0.2,10.4L0.2,10.4
		z"/>
</g>
</svg>
