<svg width="80" height="80" viewBox="0 0 80 80" fill="none" xmlns="http://www.w3.org/2000/svg">
<g clip-path="url(#clip0_1388_8511)">
<path d="M0 40C0 17.9086 17.9086 0 40 0V0C62.0914 0 80 17.9086 80 40V40C80 62.0914 62.0914 80 40 80V80C17.9086 80 0 62.0914 0 40V40Z" fill="white"/>
<g opacity="0.1" filter="url(#filter0_d_1388_8511)">
<path fill-rule="evenodd" clip-rule="evenodd" d="M40 80C62.0914 80 80 62.0914 80 40C80 17.9086 62.0914 0 40 0C17.9086 0 0 17.9086 0 40C0 62.0914 17.9086 80 40 80Z" fill="white"/>
</g>
<path d="M60.0004 41.2402V45.3602C60.0004 46.4802 59.0804 47.4002 57.9404 47.4002H54.0804C51.9204 47.4002 49.9404 45.8202 49.7604 43.6602C49.6404 42.4002 50.1204 41.2202 50.9604 40.4002C51.7004 39.6402 52.7204 39.2002 53.8404 39.2002H57.9404C59.0804 39.2002 60.0004 40.1202 60.0004 41.2402Z" fill="#037DD6"/>
<path d="M46.76 43.9198C46.58 41.8198 47.34 39.7598 48.86 38.2598C50.14 36.9598 51.92 36.1998 53.84 36.1998H54.98C55.54 36.1998 56 35.7398 55.92 35.1798C55.38 31.2998 52.02 28.2998 48 28.2998H28C23.58 28.2998 20 31.8798 20 36.2998V50.2998C20 54.7198 23.58 58.2998 28 58.2998H48C52.04 58.2998 55.38 55.2998 55.92 51.4198C56 50.8598 55.54 50.3998 54.98 50.3998H54.08C50.28 50.3998 47.08 47.5598 46.76 43.9198ZM42 39.7998H30C29.18 39.7998 28.5 39.1398 28.5 38.2998C28.5 37.4598 29.18 36.7998 30 36.7998H42C42.82 36.7998 43.5 37.4798 43.5 38.2998C43.5 39.1198 42.82 39.7998 42 39.7998Z" fill="#037DD6"/>
<path d="M44.4203 23.9602C44.9403 24.5002 44.4803 25.3002 43.7203 25.3002H28.0603C25.8803 25.3002 23.8403 25.9402 22.1403 27.0402C21.3603 27.5402 20.3003 27.0002 20.6803 26.1402C21.8003 23.5202 24.4203 21.7002 27.4403 21.7002H38.6803C41.0003 21.7002 43.0603 22.5202 44.4203 23.9602Z" fill="#037DD6"/>
</g>
<defs>
<filter id="filter0_d_1388_8511" x="-24" y="-20" width="128" height="128" filterUnits="userSpaceOnUse" color-interpolation-filters="sRGB">
<feFlood flood-opacity="0" result="BackgroundImageFix"/>
<feColorMatrix in="SourceAlpha" type="matrix" values="0 0 0 0 0 0 0 0 0 0 0 0 0 0 0 0 0 0 127 0" result="hardAlpha"/>
<feOffset dy="4"/>
<feGaussianBlur stdDeviation="12"/>
<feComposite in2="hardAlpha" operator="out"/>
<feColorMatrix type="matrix" values="0 0 0 0 0.847162 0 0 0 0 0.847162 0 0 0 0 0.847162 0 0 0 0.2 0"/>
<feBlend mode="normal" in2="BackgroundImageFix" result="effect1_dropShadow_1388_8511"/>
<feBlend mode="normal" in="SourceGraphic" in2="effect1_dropShadow_1388_8511" result="shape"/>
</filter>
<clipPath id="clip0_1388_8511">
<path d="M0 40C0 17.9086 17.9086 0 40 0V0C62.0914 0 80 17.9086 80 40V40C80 62.0914 62.0914 80 40 80V80C17.9086 80 0 62.0914 0 40V40Z" fill="white"/>
</clipPath>
</defs>
</svg>
