<svg width="80" height="80" viewBox="0 0 80 80" fill="none" xmlns="http://www.w3.org/2000/svg">
<path opacity="0.1" fill-rule="evenodd" clip-rule="evenodd" d="M40 80C62.0914 80 80 62.0914 80 40C80 17.9086 62.0914 0 40 0C17.9086 0 0 17.9086 0 40C0 62.0914 17.9086 80 40 80Z" fill="#037DD6"/>
<path d="M21.6216 48.5434L21.6216 48.5434L21.6233 48.542C22.8354 47.5758 24.358 47 26 47C29.8677 47 33 50.1323 33 54C33 55.3125 32.6326 56.5511 31.9888 57.5951L31.9824 57.6055L31.9762 57.6161C31.6135 58.2379 31.148 58.7888 30.6174 59.2338L30.604 59.245L30.591 59.2567C29.3726 60.3533 27.7703 61 26 61C23.4455 61 21.2259 59.6369 20.0194 57.6088L20.0154 57.6019L20.0112 57.5951C19.3674 56.5511 19 55.3125 19 54C19 51.7927 20.0147 49.8184 21.6216 48.5434ZM30.819 53.8741L30.8223 53.8711C31.8199 52.94 31.8936 51.3476 30.9511 50.3377C30.0205 49.3407 28.4294 49.2665 27.4194 50.2073C27.4189 50.2079 27.4183 50.2084 27.4177 50.2089L24.927 52.5128L24.6471 52.2329L23.94 52.94L24.6471 52.2329C23.6766 51.2624 22.0834 51.2624 21.1129 52.2329C20.1424 53.2034 20.1424 54.7966 21.1129 55.7671L23.0929 57.7471C23.5903 58.2445 24.2291 58.48 24.86 58.48C25.4633 58.48 26.0885 58.2507 26.5597 57.8135C26.5599 57.8133 26.5602 57.813 26.5605 57.8128L30.819 53.8741L30.819 53.8741Z" fill="#037DD6" stroke="#037DD6" stroke-width="2"/>
<path d="M23 32.538C22.6396 32.843 22.305 33.178 22 33.5392V31.6796C22 29.7135 23.2044 27.9673 25.0334 27.2751C25.0336 27.275 25.0337 27.275 25.0339 27.2749L40.9072 21.2774C41.238 21.1579 41.5804 21.0996 41.9 21.0996C43.3788 21.0996 44.7 22.3024 44.7 23.8996V30.4996H43.7V23.8996C43.7 23.2989 43.4207 22.8274 43.0578 22.5269C42.7226 22.2493 42.2982 22.0996 41.9 22.0996C41.6674 22.0996 41.4454 22.1459 41.2395 22.2268L25.3872 28.2039L25.3869 28.204C23.9296 28.754 23 30.1322 23 31.6796V32.538Z" fill="#24292E" stroke="#037DD6" stroke-width="2"/>
<path d="M53.9964 46.1033L53.9957 46.0935L53.9947 46.0837C53.9657 45.7832 54.0816 45.492 54.2865 45.2871L54.296 45.2776L54.3053 45.2677C54.4602 45.1043 54.6893 45 54.9794 45H57.9745C57.987 45.0011 57.995 45.0034 57.9994 45.005V46.9986C57.9989 46.9987 57.9983 46.9988 57.9977 46.999C57.9963 46.9993 57.9943 46.9997 57.9918 47H55.0994C54.4825 47 54.0305 46.5467 53.9964 46.1033Z" fill="#24292E" stroke="#037DD6" stroke-width="2"/>
<path d="M54.96 41.9H57C58.1 41.9 59 41 59 39.9V39.02C59 34.88 55.62 31.5 51.48 31.5H28.52C26.82 31.5 25.26 32.06 24 33.02C22.18 34.38 21 36.56 21 39.02V42.58C21 43.34 21.8 43.82 22.52 43.58C23.64 43.2 24.82 43 26 43C32.06 43 37 47.94 37 54C37 55.44 36.62 57.02 36.02 58.42C35.7 59.14 36.2 60 36.98 60H51.48C55.62 60 59 56.62 59 52.48V52.1C59 51 58.1 50.1 57 50.1H55.26C53.34 50.1 51.5 48.92 51 47.06C50.6 45.54 51.08 44.06 52.08 43.1C52.82 42.34 53.84 41.9 54.96 41.9ZM44 41.5H34C33.18 41.5 32.5 40.82 32.5 40C32.5 39.18 33.18 38.5 34 38.5H44C44.82 38.5 45.5 39.18 45.5 40C45.5 40.82 44.82 41.5 44 41.5Z" fill="#037DD6"/>
</svg>
