<svg width="12" height="11" viewBox="0 0 12 11" fill="none" xmlns="http://www.w3.org/2000/svg">
<path fill-rule="evenodd" clip-rule="evenodd" d="M0.458053 5.51124C0.445843 2.4839 2.93223 -0.00536133 5.96299 8.67213e-06C8.98765 0.00537867 11.4458 2.46095 11.458 5.48829C11.4702 8.51563 8.98384 11.0049 5.95305 11C2.92861 10.9941 0.470233 8.53858 0.458053 5.51124ZM5.55662 5.90138C5.55662 6.46339 5.57954 6.98732 5.54847 7.50783C5.52836 7.84426 5.67753 7.88283 5.95124 7.87551C6.20426 7.86916 6.38959 7.87795 6.3678 7.52151C6.33536 6.99172 6.35938 6.45852 6.35938 5.90139C6.92154 5.90139 7.44538 5.87844 7.96601 5.90969C8.30241 5.92971 8.34034 5.7803 8.33341 5.50637C8.32697 5.25344 8.33591 5.06838 7.97977 5.08987C7.45002 5.1221 6.91675 5.09866 6.35938 5.09866C6.35938 4.53616 6.33649 4.01223 6.36762 3.49173C6.3877 3.1553 6.23847 3.11771 5.96479 3.12405C5.71174 3.13089 5.52644 3.12161 5.54826 3.47854C5.58067 4.00784 5.55662 4.54104 5.55662 5.09866C5.03828 5.09866 4.55946 5.09866 4.08073 5.09866C3.58018 5.09866 3.59346 5.09866 3.58335 5.59085C3.57825 5.83841 3.66068 5.9136 3.90305 5.90628C4.43732 5.89066 4.97236 5.9014 5.55661 5.9014L5.55662 5.90138Z" fill="#0079C0"/>
</svg>
