<svg width="80" height="80" viewBox="0 0 80 80" fill="none" xmlns="http://www.w3.org/2000/svg">
<g clip-path="url(#clip0_1388_8453)">
<path d="M0 40C0 17.9086 17.9086 0 40 0V0C62.0914 0 80 17.9086 80 40V40C80 62.0914 62.0914 80 40 80V80C17.9086 80 0 62.0914 0 40V40Z" fill="white"/>
<g opacity="0.1" filter="url(#filter0_d_1388_8453)">
<path fill-rule="evenodd" clip-rule="evenodd" d="M40 80C62.0914 80 80 62.0914 80 40C80 17.9086 62.0914 0 40 0C17.9086 0 0 17.9086 0 40C0 62.0914 17.9086 80 40 80Z" fill="white"/>
</g>
<path d="M60 54V60H20V54C20 52.9 20.9 52 22 52H58C59.1 52 60 52.9 60 54Z" fill="#037DD6" stroke="#037DD6" stroke-width="1.5" stroke-miterlimit="10" stroke-linecap="round" stroke-linejoin="round"/>
<path d="M30 38H26V52H30V38Z" fill="#037DD6"/>
<path d="M38 38H34V52H38V38Z" fill="#037DD6"/>
<path d="M46 38H42V52H46V38Z" fill="#037DD6"/>
<path d="M54 38H50V52H54V38Z" fill="#037DD6"/>
<path d="M62 61.5H18C17.18 61.5 16.5 60.82 16.5 60C16.5 59.18 17.18 58.5 18 58.5H62C62.82 58.5 63.5 59.18 63.5 60C63.5 60.82 62.82 61.5 62 61.5Z" fill="#037DD6"/>
<path d="M58.74 27.4997L40.74 20.2997C40.34 20.1397 39.66 20.1397 39.26 20.2997L21.26 27.4997C20.56 27.7797 20 28.5997 20 29.3597V35.9997C20 37.0997 20.9 37.9997 22 37.9997H58C59.1 37.9997 60 37.0997 60 35.9997V29.3597C60 28.5997 59.44 27.7797 58.74 27.4997ZM40 32.9997C38.34 32.9997 37 31.6597 37 29.9997C37 28.3397 38.34 26.9997 40 26.9997C41.66 26.9997 43 28.3397 43 29.9997C43 31.6597 41.66 32.9997 40 32.9997Z" fill="#037DD6"/>
</g>
<defs>
<filter id="filter0_d_1388_8453" x="-24" y="-20" width="128" height="128" filterUnits="userSpaceOnUse" color-interpolation-filters="sRGB">
<feFlood flood-opacity="0" result="BackgroundImageFix"/>
<feColorMatrix in="SourceAlpha" type="matrix" values="0 0 0 0 0 0 0 0 0 0 0 0 0 0 0 0 0 0 127 0" result="hardAlpha"/>
<feOffset dy="4"/>
<feGaussianBlur stdDeviation="12"/>
<feComposite in2="hardAlpha" operator="out"/>
<feColorMatrix type="matrix" values="0 0 0 0 0.847162 0 0 0 0 0.847162 0 0 0 0 0.847162 0 0 0 0.2 0"/>
<feBlend mode="normal" in2="BackgroundImageFix" result="effect1_dropShadow_1388_8453"/>
<feBlend mode="normal" in="SourceGraphic" in2="effect1_dropShadow_1388_8453" result="shape"/>
</filter>
<clipPath id="clip0_1388_8453">
<path d="M0 40C0 17.9086 17.9086 0 40 0V0C62.0914 0 80 17.9086 80 40V40C80 62.0914 62.0914 80 40 80V80C17.9086 80 0 62.0914 0 40V40Z" fill="white"/>
</clipPath>
</defs>
</svg>
