<?xml version="1.0" encoding="UTF-8"?><svg id="_레이어_2" xmlns="http://www.w3.org/2000/svg" viewBox="0 0 73.64 73.64"><defs><style>.cls-1{fill:#fff;}.cls-2{fill:#f0b90b;}</style></defs><g id="ELEMENTS"><g><path class="cls-2" d="M36.82,0c20.34,0,36.82,16.49,36.82,36.82s-16.49,36.82-36.82,36.82S0,57.16,0,36.82,16.49,0,36.82,0"/><polygon class="cls-1" points="27.29 32.87 32.87 27.31 34.04 26.13 36.83 23.35 46.32 32.87 51.84 27.31 36.83 12.27 21.77 27.31 27.29 32.87"/><rect class="cls-1" x="32.92" y="32.89" width="7.84" height="7.84" transform="translate(-15.24 36.83) rotate(-45)"/><polygon class="cls-1" points="46.32 40.79 36.83 50.28 33.49 46.95 32.88 46.33 27.29 40.79 21.77 46.31 36.83 61.35 51.84 46.31 46.32 40.79"/><rect class="cls-1" x="13.9" y="32.91" width="7.84" height="7.84" transform="translate(-20.82 23.39) rotate(-45)"/><rect class="cls-1" x="51.9" y="32.9" width="7.84" height="7.84" transform="translate(-9.69 50.26) rotate(-45)"/></g></g></svg>