<svg width="80" height="80" viewBox="0 0 80 80" fill="none" xmlns="http://www.w3.org/2000/svg">
<path opacity="0.1" fill-rule="evenodd" clip-rule="evenodd" d="M40 80C62.0914 80 80 62.0914 80 40C80 17.9086 62.0914 0 40 0C17.9086 0 0 17.9086 0 40C0 62.0914 17.9086 80 40 80Z" fill="#037DD6"/>
<path d="M59 58.5C59 58.7677 58.7677 59 58.5 59H21.5C21.2323 59 21 58.7677 21 58.5C21 58.2323 21.2323 58 21.5 58H58.5C58.7677 58 59 58.2323 59 58.5Z" fill="#037DD6" stroke="#037DD6" stroke-width="2"/>
<path d="M23.0766 45.8212L22.7823 45.5195H22.7754C20.6603 43.0956 20.7551 39.4195 23.048 37.1266L37.348 22.8266C39.7574 20.4172 43.6443 20.4172 46.0538 22.8266L46.0626 22.8355L46.0716 22.8441C46.4736 23.2265 46.4869 23.9193 46.0738 24.3324L24.5938 45.8124C24.1594 46.2468 23.4794 46.2341 23.0766 45.8212Z" fill="#037DD6" stroke="#037DD6" stroke-width="2"/>
<path d="M56.9337 33.6877L56.9363 33.6902C59.3619 36.0987 59.362 39.9997 56.9188 42.4085L56.9188 42.4085L56.9133 42.414L42.6363 56.711C42.6358 56.7115 42.6353 56.712 42.6347 56.7125C40.2251 59.1033 36.3368 59.1033 33.9271 56.7127C33.9266 56.7121 33.926 56.7115 33.9254 56.711L27.8291 50.5947L27.828 50.5935C27.3936 50.1591 27.4063 49.4792 27.8192 49.0764L27.8192 49.0765L27.828 49.0677L49.308 27.5877L49.308 27.5878L49.3166 27.5789C49.7194 27.1661 50.3994 27.1534 50.8338 27.5877L56.9337 33.6877ZM39.808 54.1877L39.8109 54.1848L42.2235 51.7522C42.9327 51.0626 43.0731 49.9982 42.6814 49.1463C43.5274 49.5316 44.5654 49.4017 45.2734 48.722L45.2815 48.7142L45.2894 48.7063L50.168 43.8077C50.1682 43.8075 50.1683 43.8074 50.1685 43.8072C51.066 42.9091 51.0463 41.4667 50.1817 40.5675L50.1678 40.5531L50.1534 40.5392C49.2745 39.6955 47.812 39.6752 46.9338 40.5535L42.0338 45.4535L42.0268 45.4605L42.02 45.4675C41.3453 46.1693 41.1851 47.202 41.574 48.0485C40.73 47.6687 39.6823 47.8049 38.9938 48.4935L36.5538 50.9335L36.5468 50.9405L36.54 50.9475C35.6753 51.8469 35.6558 53.2897 36.5538 54.1877L36.5607 54.1947L36.5678 54.2015C37.4671 55.0662 38.91 55.0857 39.808 54.1877Z" fill="#037DD6" stroke="#037DD6" stroke-width="2"/>
</svg>
