<?xml version="1.0" encoding="UTF-8"?><svg id="_레이어_2" xmlns="http://www.w3.org/2000/svg" viewBox="0 0 339.24 394.1"><defs><style>.cls-1{fill:#b2b2b2;}</style></defs><g id="_레이어_2-2"><path class="cls-1" d="m339.17,278.9c-.3-1.9-1.4-3.6-3.3-4.8l-9.4-5.9c-1.6-1-3.6-1.5-5.6-1.5-2.8,0-5.3,1-7,2.7l-86,84.4V7.1c0-3.9-4-7.1-9-7.1h-12c-5,0-9,3.2-9,7.1v379.9c0,3.9,4,7.1,9,7.1h14.1c2.8,0,5.3-1,7-2.7l109.3-107.3c1.5-1.5,2.2-3.3,1.9-5.2Z"/><path class="cls-1" d="m132.37,0h-14.1c-2.8,0-5.3,1-7,2.7L1.97,109.9c-1.5,1.5-2.2,3.3-1.9,5.2.3,1.9,1.4,3.6,3.3,4.8l9.4,5.9c1.6,1,3.6,1.5,5.6,1.5,2.8,0,5.3-1,7-2.6L111.37,40.3v346.6c0,3.9,4,7.1,9,7.1h12c5,0,9-3.2,9-7.1V7.1c0-3.9-4.1-7.1-9-7.1Z"/></g></svg>