<?xml version="1.0" encoding="UTF-8"?><svg id="_이어_2" xmlns="http://www.w3.org/2000/svg" viewBox="0 0 597.91 572.49"><defs><style>.cls-1{fill:#fff;fill-rule:evenodd;}</style></defs><g id="_이어_1-2"><path class="cls-1" d="M298.96,486.75c73.29-37.09,102.19-121.41,103.74-196.21l-62.64-71.68,99.6,64.14c10.53,7.22,19.24,15.84,23.58,28.06,23,64.78-22.5,193.66-61.12,261.43,58.68-69.4,113.95-156.52,101.44-272.03l-5.22-44.05-21.01,25.55-137.03-82.15-1.81-18.69,138.94,37.13,120.48,107.2C567.23,211.76,519.2,78.21,400.85,0c60.24,54.78,122.01,132.59,126.14,227.45l-49.63-33.69-139.48-22.21-1.26-5.14,112.08-9.32c5.77,3.66,23.58,14.35,28.58,16.96-4.06-62.21-55.09-116.61-100.66-146.33,24.03,27.08,43.72,54.73,56.92,102.93l-7.14,14.48-99.32,13.17-6.37-7.4,15.19-18.89c.08-11.58-5.92-36.55-19.18-53.92,14.49,30.62,13.35,55.35-9.51,69.35h-16.5c-22.87-14-24-38.73-9.51-69.35-13.26,17.37-19.25,42.34-19.17,53.92l15.19,18.89-6.37,7.4-99.32-13.17-7.14-14.48c13.19-48.2,32.89-75.85,56.91-102.93-45.57,29.72-96.6,84.12-100.66,146.33,4.99-2.61,22.81-13.3,28.58-16.96l112.08,9.32-1.26,5.14-139.48,22.21-49.63,33.69C75.04,132.59,136.82,54.78,197.06,0,78.71,78.21,30.68,211.76,0,325.46l120.48-107.2,138.94-37.13-1.81,18.69-137.03,82.15-21.01-25.55-5.22,44.05c-12.51,115.52,42.76,202.63,101.44,272.03-38.62-67.77-84.12-196.66-61.12-261.43,4.34-12.22,13.05-20.83,23.58-28.06l99.6-64.14-62.64,71.68c1.55,74.79,30.44,159.12,103.74,196.21"/></g></svg>