<?xml version="1.0" encoding="UTF-8"?><svg id="_이어_2" xmlns="http://www.w3.org/2000/svg" viewBox="0 0 113.42 113.42"><defs><style>.cls-1{fill:#fff;}</style></defs><g id="_이어_1-2"><g><path class="cls-1" d="M13.39,35.33h0c.44,.26,.95,.39,1.46,.39,1.05,0,2.03-.56,2.56-1.47,.39-.68,.5-1.48,.29-2.24-.21-.76-.69-1.4-1.37-1.79-.68-.39-1.48-.5-2.24-.29-.76,.21-1.4,.69-1.79,1.37-.39,.68-.5,1.48-.29,2.24,.21,.76,.69,1.4,1.38,1.79Zm.65-3.04h0l.87,.47-.1,.03s0-.03,0-.05l-.78-.45Z"/><path class="cls-1" d="M8.69,51.43h0c.17,.03,.34,.04,.51,.04,.61,0,1.19-.18,1.69-.53,.65-.45,1.08-1.13,1.22-1.91,.14-.78-.04-1.56-.49-2.2-.45-.64-1.12-1.07-1.9-1.21-.78-.14-1.56,.03-2.21,.48-.65,.45-1.08,1.13-1.22,1.91-.28,1.6,.79,3.13,2.39,3.42Zm.59-3.34h.03l-.06,.45-.1-.02s.03-.04,.06-.04h0l.07-.39Z"/><path class="cls-1" d="M12.17,64.76c-.28-1.6-1.81-2.67-3.42-2.39h0c-.78,.14-1.46,.57-1.91,1.22-.45,.65-.62,1.43-.49,2.2,.14,.78,.57,1.45,1.21,1.91,.5,.35,1.08,.54,1.69,.54,.17,0,.34-.02,.51-.04,.78-.14,1.46-.57,1.91-1.21,.45-.64,.62-1.43,.49-2.2Z"/><path class="cls-1" d="M15.81,78.13c-.76-.21-1.56-.1-2.24,.3-.68,.39-1.17,1.03-1.37,1.79-.2,.76-.1,1.55,.29,2.24,.52,.91,1.5,1.47,2.56,1.47,.51,0,1.02-.14,1.47-.39,.68-.39,1.17-1.03,1.37-1.79,.2-.76,.1-1.56-.29-2.24-.39-.68-1.03-1.17-1.79-1.38Zm-.74,2.89l-.25-.43,.03-.02,.24,.38s0,.03,0,.04l.87,.23h0l-.89-.2Z"/><g><path class="cls-1" d="M56.71,0C25.44,0,0,25.44,0,56.71s25.44,56.71,56.71,56.71,56.71-25.44,56.71-56.71S87.98,0,56.71,0Zm51.71,56.71c0,28.51-23.2,51.71-51.71,51.71S5,85.22,5,56.71,28.2,5,56.71,5s51.71,23.2,51.71,51.71Z"/><path class="cls-1" d="M56.71,12.27c-24.5,0-44.44,19.93-44.44,44.44s19.93,44.44,44.44,44.44,44.44-19.93,44.44-44.44S81.21,12.27,56.71,12.27Zm39.44,44.44c0,21.75-17.69,39.44-39.44,39.44S17.27,78.45,17.27,56.71,34.96,17.27,56.71,17.27s39.44,17.69,39.44,39.44Z"/><path class="cls-1" d="M73.83,47.45c0-6.79-5.52-12.32-12.31-12.33v-4.13h-6.13v4.13h-1.41v-4.13h-6.13v4.13h-8.26v6.13h8.26v30.92h-8.26v6.13h8.26v4.13h6.13v-4.13h1.41v4.13h6.13v-4.13c6.79-.01,12.31-5.54,12.31-12.33,0-3.56-1.55-6.93-4.21-9.26,2.66-2.33,4.21-5.71,4.21-9.26Zm-19.85,12.33h7.52c3.42,0,6.2,2.78,6.2,6.2s-2.78,6.2-6.2,6.2h-7.52v-12.39Zm0-6.13v-12.39h7.52c3.42,0,6.2,2.78,6.2,6.2s-2.78,6.2-6.2,6.2h-7.52Z"/><path class="cls-1" d="M56.52,11.45c1.63,0,2.95-1.32,2.95-2.95s-1.32-2.95-2.95-2.95-2.95,1.32-2.95,2.95,1.32,2.95,2.95,2.95Zm-.05-2.95s.02-.05,.05-.05l.05,.05h-.1Z"/><path class="cls-1" d="M40.04,14.42c.34,0,.68-.06,1.01-.18,.74-.27,1.33-.81,1.66-1.52s.37-1.52,.1-2.25c-.27-.74-.81-1.34-1.53-1.67-.72-.33-1.51-.37-2.25-.09-.74,.27-1.33,.81-1.66,1.52-.33,.72-.37,1.52-.1,2.25,.42,1.16,1.54,1.94,2.77,1.94Zm-.32-3.84h0l.37,.88-.09,.03s0-.05,.03-.06l-.31-.85h0Z"/><path class="cls-1" d="M25.31,22.84c.09,0,.18,.01,.27,.01,.69,0,1.36-.25,1.89-.69,.61-.51,.98-1.22,1.05-2s-.17-1.55-.68-2.15c-.51-.6-1.22-.97-2.01-1.04-.79-.06-1.55,.18-2.15,.68-.6,.51-.97,1.22-1.04,2.01-.07,.78,.17,1.55,.68,2.14,.51,.6,1.22,.98,2,1.05Zm.33-2.93l-.04,.03-.07-.07h.06l.04,.04Z"/><path class="cls-1" d="M25.6,90.83c-.78,.07-1.49,.44-2,1.04-1.04,1.24-.88,3.11,.36,4.15,.53,.45,1.2,.69,1.89,.69,.08,0,.17,0,.26-.01,.79-.07,1.5-.44,2-1.04,1.05-1.25,.89-3.11-.36-4.15-.62-.52-1.39-.77-2.17-.68Zm.99,3.55l-.77-.64,.03-.04,.04,.03s.02,.05,0,.07l.69,.58Z"/><path class="cls-1" d="M41.41,99.31c-.74-.27-1.54-.23-2.25,.1-.72,.33-1.26,.93-1.53,1.67-.27,.74-.23,1.54,.1,2.26s.92,1.26,1.66,1.52c.32,.12,.66,.18,1.01,.18,1.24,0,2.35-.78,2.77-1.94,.27-.74,.23-1.54-.1-2.26-.33-.71-.92-1.25-1.66-1.52Zm-.96,2.79l-.06,.03,.03-.09s.04,.04,.03,.06Z"/><path class="cls-1" d="M56.9,101.97c-1.63,0-2.95,1.32-2.95,2.95s1.32,2.95,2.95,2.95,2.95-1.32,2.95-2.95-1.32-2.95-2.95-2.95Z"/><path class="cls-1" d="M74.62,99.27c-.72-.33-1.52-.37-2.25-.1h0c-.74,.27-1.33,.81-1.66,1.52-.33,.72-.37,1.52-.1,2.25,.42,1.16,1.54,1.94,2.77,1.94,.34,0,.68-.06,1.01-.18,.74-.27,1.33-.81,1.67-1.53,.33-.71,.37-1.52,.1-2.25-.27-.74-.81-1.33-1.53-1.67Z"/><path class="cls-1" d="M85.95,91.26h0c-1.24,1.05-1.41,2.91-.36,4.16,.56,.67,1.38,1.05,2.26,1.05,.69,0,1.36-.24,1.9-.69,1.24-1.04,1.4-2.91,.36-4.16-1.04-1.24-2.91-1.4-4.15-.36Z"/><path class="cls-1" d="M100.03,78.1h0c-.68-.4-1.48-.5-2.24-.3-.76,.2-1.4,.69-1.79,1.37-.39,.68-.5,1.48-.29,2.24,.21,.76,.7,1.4,1.38,1.79,.45,.26,.95,.39,1.47,.39,1.05,0,2.03-.57,2.56-1.48,.81-1.4,.32-3.21-1.08-4.02Z"/><path class="cls-1" d="M104.73,61.99h0c-.78-.13-1.56,.04-2.2,.49-.65,.45-1.08,1.13-1.21,1.9-.14,.77,.03,1.56,.48,2.21,.45,.65,1.12,1.08,1.91,1.22,.17,.03,.34,.04,.51,.04,1.43,0,2.66-1.03,2.91-2.44,.28-1.6-.79-3.13-2.39-3.42Z"/><path class="cls-1" d="M101.25,48.66c.25,1.41,1.47,2.44,2.9,2.44,.17,0,.34-.01,.51-.04,.78-.14,1.45-.57,1.91-1.21,.45-.64,.63-1.43,.49-2.2-.14-.78-.57-1.46-1.21-1.91-.64-.45-1.41-.62-2.2-.49-1.6,.28-2.67,1.81-2.39,3.42Zm2.86-.5s0-.03,0-.04l.03-.02,.09,.49h-.03l-.1-.43Z"/><path class="cls-1" d="M98.37,35.39c.51,0,1.02-.14,1.48-.4,1.4-.81,1.88-2.62,1.07-4.03-.81-1.4-2.62-1.88-4.03-1.07-.68,.39-1.17,1.03-1.37,1.79s-.1,1.56,.29,2.24c.52,.91,1.5,1.48,2.56,1.48Z"/><path class="cls-1" d="M87.55,22.6c.09,0,.17,0,.26-.01,.78-.07,1.49-.44,2-1.04,.51-.6,.75-1.37,.68-2.16s-.44-1.5-1.04-2c-1.24-1.04-3.1-.88-4.16,.37-1.04,1.25-.88,3.11,.37,4.15,.53,.45,1.2,.69,1.89,.69Z"/><path class="cls-1" d="M72.01,14.11c.32,.12,.66,.18,1.01,.18,1.24,0,2.35-.78,2.77-1.94,.27-.74,.23-1.54-.1-2.26-.33-.71-.92-1.26-1.66-1.52-.74-.27-1.54-.24-2.26,.09-.72,.33-1.26,.93-1.53,1.67-.27,.74-.23,1.54,.1,2.25,.33,.71,.92,1.26,1.67,1.53Zm.96-2.79l.06-.03-.03,.09s-.04-.04-.03-.06Z"/></g></g></g></svg>