<?xml version="1.0" encoding="UTF-8"?><svg id="_이어_2" xmlns="http://www.w3.org/2000/svg" viewBox="0 0 120.52 120.52"><defs><style>.cls-1,.cls-2{fill:#fff;}.cls-2{fill-rule:evenodd;}</style></defs><g id="_이어_1-2"><g><path class="cls-2" d="M8.59,103.29v-8.59H0v8.59c0,9.45,7.78,17.23,17.23,17.23h8.59v-8.64h-8.59c-4.73,0-8.64-3.86-8.64-8.59Z"/><path class="cls-2" d="M8.59,17.23c0-4.73,3.91-8.64,8.64-8.64h8.59V0h-8.59C7.78,0,0,7.78,0,17.23v8.59H8.59v-8.59Z"/><path class="cls-2" d="M111.88,103.29c0,4.73-3.86,8.59-8.59,8.59h-8.59v8.64h8.59c9.45,0,17.23-7.78,17.23-17.23v-8.59h-8.64v8.59Z"/><path class="cls-2" d="M103.29,0h-8.59V8.59h8.59c4.73,0,8.59,3.91,8.59,8.64v8.59h8.64v-8.59c0-9.45-7.78-17.23-17.23-17.23Z"/><path class="cls-2" d="M60.24,25.82c0-4.73-3.86-8.59-8.59-8.59H25.82c-4.73,0-8.59,3.86-8.59,8.59v25.82c0,4.73,3.86,8.59,8.59,8.59h25.82c4.73,0,8.59-3.86,8.59-8.59V25.82Zm-8.59,25.82H25.82V25.82h25.82v25.82Z"/><rect class="cls-1" x="34.41" y="34.41" width="8.64" height="8.64"/><path class="cls-2" d="M103.29,94.7v-25.82c0-4.73-3.86-8.64-8.59-8.64h-25.82c-4.73,0-8.64,3.91-8.64,8.64v25.82c0,4.73,3.91,8.59,8.64,8.59h25.82c4.73,0,8.59-3.86,8.59-8.59Zm-34.41-25.82h25.82v25.82h-25.82v-25.82Z"/><rect class="cls-1" x="77.47" y="77.47" width="8.59" height="8.59"/><path class="cls-2" d="M94.7,51.64h8.59V25.82c0-4.73-3.86-8.59-8.59-8.59h-8.64v8.59h8.64v25.82Z"/><rect class="cls-1" x="68.88" y="43.05" width="17.18" height="8.59"/><rect class="cls-1" x="77.47" y="25.82" width="8.59" height="8.59"/><rect class="cls-1" x="68.88" y="17.23" width="8.59" height="8.59"/><path class="cls-2" d="M25.82,67.35h-8.59v25.82c0,4.73,3.86,8.59,8.59,8.59h8.59v-8.59h-8.59v-25.82Z"/><rect class="cls-1" x="34.41" y="67.35" width="17.23" height="8.59"/><rect class="cls-1" x="34.41" y="84.53" width="8.64" height="8.64"/><rect class="cls-1" x="43.05" y="93.17" width="8.59" height="8.59"/></g></g></svg>