<?xml version="1.0" encoding="UTF-8"?><svg id="_이어_2" xmlns="http://www.w3.org/2000/svg" viewBox="0 0 109.1 123.67"><defs><style>.cls-1{fill:#fff;}</style></defs><g id="_이어_1-2"><g><path class="cls-1" d="M90.63,54.55c0,1.38,1.12,2.5,2.5,2.5h6.35c1.38,0,2.5-1.12,2.5-2.5s-1.12-2.5-2.5-2.5h-6.35c-1.38,0-2.5,1.12-2.5,2.5Z"/><path class="cls-1" d="M76.24,107.44h0c-.52,.42-.85,1.01-.92,1.68-.07,.66,.12,1.32,.53,1.84l9.42,11.77c.48,.6,1.19,.94,1.95,.94,.56,0,1.12-.19,1.56-.55,.52-.42,.85-1.01,.92-1.68,.07-.66-.12-1.32-.53-1.84l-9.42-11.77c-.86-1.08-2.44-1.25-3.51-.39Z"/><g><path class="cls-1" d="M54.55,109.1c30.08,0,54.55-24.47,54.55-54.55S84.63,0,54.55,0,0,24.47,0,54.55s24.47,54.55,54.55,54.55ZM5,54.55C5,27.23,27.23,5,54.55,5s49.55,22.23,49.55,49.55-22.23,49.55-49.55,49.55S5,81.87,5,54.55Z"/><path class="cls-1" d="M54.55,61.42c2.84,0,5.37-1.76,6.39-4.36h18c1.38,0,2.5-1.12,2.5-2.5s-1.12-2.5-2.5-2.5h-18c-.7-1.78-2.11-3.19-3.89-3.89V30.16c0-1.38-1.12-2.5-2.5-2.5s-2.5,1.12-2.5,2.5v18c-2.6,1.02-4.36,3.54-4.36,6.39,0,3.79,3.08,6.86,6.86,6.86Zm-1.86-6.86c0-1.03,.84-1.87,1.86-1.87s1.87,.84,1.87,1.87-.84,1.86-1.87,1.86-1.86-.84-1.86-1.86Z"/><path class="cls-1" d="M54.55,18.47c1.38,0,2.5-1.12,2.5-2.5v-6.35c0-1.38-1.12-2.5-2.5-2.5s-2.5,1.12-2.5,2.5v6.35c0,1.38,1.12,2.5,2.5,2.5Z"/><path class="cls-1" d="M18.47,54.55c0-1.38-1.12-2.5-2.5-2.5h-6.35c-1.38,0-2.5,1.12-2.5,2.5s1.12,2.5,2.5,2.5h6.35c1.38,0,2.5-1.12,2.5-2.5Z"/><path class="cls-1" d="M54.55,90.63c-1.38,0-2.5,1.12-2.5,2.5v6.35c0,1.38,1.12,2.5,2.5,2.5s2.5-1.12,2.5-2.5v-6.35c0-1.38-1.12-2.5-2.5-2.5Z"/><path class="cls-1" d="M31.03,106.91c-.66,.07-1.26,.4-1.68,.92l-9.42,11.77c-.86,1.08-.69,2.65,.39,3.51,.44,.35,1,.55,1.56,.55,.76,0,1.48-.34,1.95-.94l9.42-11.77c.86-1.08,.69-2.65-.39-3.51-.52-.42-1.18-.61-1.84-.53Z"/><path class="cls-1" d="M65.36,17.1c1.59,0,2.88-1.29,2.88-2.88s-1.29-2.88-2.88-2.88-2.88,1.29-2.88,2.88,1.29,2.88,2.88,2.88Zm-.12-2.88c0-.07,.05-.12,.12-.12s.12,.05,.12,.12c0,.13-.24,.13-.24,0Z"/><path class="cls-1" d="M43,17h0c.24,.07,.5,.1,.75,.1,.5,0,1-.13,1.43-.38,.67-.38,1.15-1.01,1.35-1.75,.2-.74,.1-1.52-.29-2.19-.38-.66-1-1.14-1.75-1.34-.74-.2-1.52-.09-2.19,.29-1.37,.79-1.84,2.56-1.05,3.94,.38,.66,1,1.14,1.75,1.34Zm-.1-3.03l.79,.14c.05-.03,.13-.01,.16,.04h0c.03,.06,.01,.13-.05,.17l.38,.66h-.02l-.52-.7s-.02-.06-.01-.09l-.73-.19v-.02Z"/><path class="cls-1" d="M33.67,21.27c.77,0,1.49-.3,2.04-.84s.84-1.27,.84-2.04-.3-1.49-.84-2.04c-1.09-1.09-2.99-1.09-4.07,0-.54,.54-.84,1.27-.84,2.04s.3,1.49,.84,2.04c.54,.54,1.27,.84,2.04,.84Zm.08-2.96s.05,.12,0,.17h-.17s-.05-.12,0-.17h.17Z"/><path class="cls-1" d="M23.58,27.52c.44,.25,.94,.39,1.44,.39,.25,0,.5-.03,.75-.1,.74-.2,1.36-.68,1.75-1.34,.79-1.37,.32-3.13-1.06-3.93-.66-.38-1.43-.48-2.19-.29-.74,.2-1.36,.68-1.74,1.34-.39,.67-.49,1.44-.29,2.19,.2,.74,.67,1.36,1.34,1.75Z"/><path class="cls-1" d="M17.64,36.45c.25,.07,.5,.1,.75,.1,.5,0,1-.13,1.44-.39,.67-.39,1.14-1.01,1.34-1.75,.2-.74,.1-1.52-.29-2.19-.34-.58-.85-1.02-1.47-1.25l-.13-.12h-.3c-.7-.15-1.42-.04-2.04,.32-.67,.38-1.15,1.01-1.34,1.75-.2,.74-.1,1.52,.29,2.19,.38,.67,1,1.14,1.75,1.34Z"/><path class="cls-1" d="M14.22,46.62c1.59,0,2.88-1.29,2.88-2.88s-1.29-2.88-2.88-2.88-2.88,1.29-2.88,2.88,1.29,2.88,2.88,2.88Zm-.12-2.88c0-.07,.05-.12,.12-.12s.12,.05,.12,.12c0,.13-.24,.13-.24,0Z"/><path class="cls-1" d="M16.71,63.91c-.8-1.37-2.56-1.84-3.94-1.05h0c-.66,.39-1.14,1.01-1.34,1.75-.2,.75-.1,1.52,.29,2.18,.38,.67,1,1.14,1.75,1.35,.24,.06,.5,.1,.75,.1,.5,0,1-.13,1.44-.39,1.37-.79,1.84-2.56,1.05-3.94Zm-1.65,1.69l-.78-.14c-.06,.04-.13,.01-.17-.04-.03-.06-.01-.13,.05-.16l-.13-.22,.07-.04,.22,.31s.02,.06,.01,.09l.73,.19v.02Z"/><path class="cls-1" d="M20.42,73.39h0c-1.12-1.12-2.94-1.12-4.06,0l-.08,.08c-.5,.53-.77,1.22-.77,1.96s.3,1.49,.84,2.04c.54,.54,1.27,.84,2.04,.84s1.5-.3,2.04-.84c1.12-1.12,1.12-2.95,0-4.08Z"/><path class="cls-1" d="M23.58,86.57c.44,.26,.94,.39,1.44,.39,.25,0,.5-.03,.75-.1,.74-.2,1.36-.68,1.75-1.34,.79-1.37,.32-3.13-1.06-3.93-.66-.38-1.43-.48-2.19-.29-.74,.2-1.36,.67-1.74,1.34-.39,.67-.49,1.44-.29,2.19,.2,.74,.67,1.36,1.34,1.75Zm2.21-2.05v.02l-.82-.36c-.06-.03-.07-.11-.04-.17l-.22-.13,.04-.07,.34,.15,.05,.17,.66,.38Z"/><path class="cls-1" d="M34.42,87.93c-.75-.2-1.52-.1-2.19,.29-.67,.39-1.14,1.01-1.34,1.75-.2,.74-.1,1.52,.29,2.18,.39,.67,1.01,1.14,1.74,1.34,.25,.07,.5,.1,.75,.1,.5,0,1-.13,1.44-.39,.67-.39,1.14-1.01,1.34-1.74,.2-.74,.1-1.52-.29-2.19s-1.01-1.14-1.75-1.34Zm.1,3.01v.02l-.88-.14-.19,.73s-.02,0-.03,0l.13-.87,.02-.09,.2,.05s.02,.06,.01,.09l.73,.2h0Z"/><path class="cls-1" d="M43.74,97.77c1.59,0,2.88-1.29,2.88-2.88s-1.29-2.88-2.88-2.88-2.88,1.29-2.88,2.88,1.29,2.88,2.88,2.88Zm-.12-2.88c0-.07,.05-.12,.12-.12s.12,.05,.12,.12c0,.13-.24,.13-.24,0Z"/><path class="cls-1" d="M66.11,92.1h0c-.74-.2-1.52-.09-2.19,.29-1.37,.79-1.84,2.56-1.05,3.94,.38,.66,1,1.14,1.75,1.34,.24,.06,.5,.1,.75,.1,.5,0,1-.13,1.43-.38,.67-.38,1.15-1.01,1.35-1.75,.2-.75,.1-1.52-.29-2.18-.38-.67-1-1.14-1.75-1.35Zm-1.59,2.53l.28,.04,.04,.07-.33-.09v-.02Z"/></g><path class="cls-1" d="M73.4,88.68h0c-.54,.55-.84,1.27-.84,2.04s.3,1.49,.84,2.04c.54,.54,1.27,.84,2.04,.84s1.49-.3,2.04-.84c1.12-1.12,1.12-2.95,0-4.08-1.12-1.11-2.94-1.11-4.06,0Zm1.95,1.95h.17s.04,.12,0,.17c-.05,.04-.12,.04-.17,0-.05-.05-.05-.12,0-.17Z"/><path class="cls-1" d="M85.52,81.58c-.66-.38-1.43-.48-2.19-.29-.74,.2-1.36,.68-1.74,1.34-.39,.67-.49,1.44-.29,2.19,.2,.74,.67,1.36,1.34,1.75h0c.44,.25,.94,.39,1.44,.39,1.03,0,1.98-.55,2.5-1.44,.79-1.37,.32-3.13-1.06-3.93Zm-.59,2.27v.02l-.82,.32-.1-.02c-.05-.03-.07-.1-.04-.16,.03-.05,.11-.07,.22,.03l.73-.2Z"/><path class="cls-1" d="M91.46,72.65c-.74-.2-1.52-.1-2.19,.29-.67,.39-1.14,1.01-1.34,1.75-.2,.74-.1,1.51,.29,2.18,.38,.67,1.01,1.15,1.75,1.34,.24,.07,.5,.1,.75,.1,.5,0,1-.13,1.44-.39,.67-.39,1.14-1.01,1.34-1.75,.2-.74,.1-1.51-.29-2.18-.38-.67-1.01-1.15-1.75-1.34Zm.1,3.04l-.86-.14-.09-.02,.05-.2,.16,.05s.02,.06,.01,.09l.73,.2v.03Z"/><path class="cls-1" d="M94.89,62.48c-1.59,0-2.88,1.29-2.88,2.88s1.29,2.88,2.88,2.88,2.88-1.29,2.88-2.88-1.29-2.88-2.88-2.88Zm0,2.76c.07,0,.12,.05,.12,.12,0,.13-.24,.13-.24,0,0-.07,.05-.12,.12-.12Z"/><path class="cls-1" d="M92.1,43c-.2,.75-.1,1.52,.29,2.18,.38,.67,1,1.14,1.75,1.35h0c.25,.07,.5,.1,.75,.1,.5,0,1-.13,1.44-.39,1.37-.79,1.84-2.56,1.05-3.94-.38-.66-1-1.14-1.75-1.34-.75-.2-1.52-.09-2.18,.29-.67,.38-1.15,1.01-1.35,1.75Z"/><path class="cls-1" d="M90.71,36.55c.77,0,1.49-.3,2.04-.84s.84-1.27,.84-2.04-.3-1.49-.84-2.04c-1.09-1.09-2.99-1.08-4.07,0-.54,.54-.84,1.27-.84,2.04s.3,1.49,.84,2.04c.54,.54,1.27,.84,2.04,.84Zm.08-2.79s-.12,.05-.17,0-.05-.12,0-.17h.17s.05,.12,0,.17Z"/><path class="cls-1" d="M82.63,27.52c.44,.25,.94,.39,1.44,.39,1.02,0,1.98-.55,2.5-1.44,.79-1.37,.32-3.13-1.06-3.93-.66-.38-1.43-.48-2.19-.29-.74,.2-1.36,.68-1.74,1.34-.39,.67-.49,1.44-.29,2.19,.2,.74,.67,1.36,1.34,1.75Z"/><path class="cls-1" d="M74.68,21.17c.25,.07,.5,.1,.75,.1,1.26,0,2.38-.83,2.75-2.03l.02-.08h0l.04-.16c.32-1.49-.59-2.99-2.08-3.39-1.52-.4-3.1,.52-3.52,2.04-.41,1.53,.5,3.12,2.03,3.53Z"/></g></g></svg>