<?xml version="1.0" encoding="UTF-8"?><svg id="_이어_2" xmlns="http://www.w3.org/2000/svg" viewBox="0 0 77.47 105.17"><defs><style>.cls-1{fill:#fff;}</style></defs><g id="_이어_1-2"><g><path class="cls-1" d="M70.55,0H6.92C3.1,0,0,3.1,0,6.92V98.25c0,3.82,3.1,6.92,6.92,6.92h63.63c3.81,0,6.92-3.1,6.92-6.92V6.92c0-3.82-3.1-6.92-6.92-6.92Zm1.92,6.92V98.25c0,1.06-.86,1.92-1.92,1.92H6.92c-1.06,0-1.92-.86-1.92-1.92V6.92c0-1.06,.86-1.92,1.92-1.92h63.63c1.06,0,1.92,.86,1.92,1.92Z"/><path class="cls-1" d="M10.17,26.65h57.13V10.17H10.17V26.65ZM62.3,15.17v6.47H15.17v-6.47H62.3Z"/><path class="cls-1" d="M10.17,94.34h57.13V39.43H10.17v54.91Zm52.13-11.8v6.8h-8.08v-6.8h8.08Zm0-12.98v7.98h-8.08v-7.98h8.08Zm0-12.98v7.98h-8.08v-7.98h8.08Zm0-12.14v7.14h-8.08v-7.14h8.08Zm-13.08,38.11v6.8h-7.98v-6.8h7.98Zm0-12.98v7.98h-7.98v-7.98h7.98Zm0-12.98v7.98h-7.98v-7.98h7.98Zm0-12.14v7.14h-7.98v-7.14h7.98Zm-12.98,38.11v6.8h-7.98v-6.8h7.98Zm0-12.98v7.98h-7.98v-7.98h7.98Zm0-12.98v7.98h-7.98v-7.98h7.98Zm-12.98,25.97v6.8H15.17v-6.8h8.08Zm0-12.98v7.98H15.17v-7.98h8.08Zm0-12.98v7.98H15.17v-7.98h8.08Zm12.98-12.14v7.14H15.17v-7.14h21.07Z"/></g></g></svg>