<svg width="26" height="15" viewBox="0 0 26 15" fill="none" xmlns="http://www.w3.org/2000/svg">
<path fill-rule="evenodd" clip-rule="evenodd" d="M0 8.68553C0.00204 4.2662 2.47906 1.30304 5.68085 0.784918C9.0195 0.244308 12.3506 2.23934 13.3339 5.4308C13.534 6.07965 13.8271 6.27993 14.4695 6.27544C17.9576 6.24948 21.4465 6.28617 24.9345 6.24673C25.7598 6.23739 26.0815 6.50891 25.9828 7.33419C25.9456 7.64651 25.9609 7.96818 25.9793 8.28397C26.0106 8.82907 25.868 9.19156 25.2355 9.13863C24.7404 9.09713 24.606 9.38491 24.6128 9.83593C24.6261 10.729 24.5979 11.6227 24.6186 12.5155C24.6312 13.0609 24.4273 13.2958 23.8744 13.2899C21.3593 13.2629 21.8424 13.5406 21.7875 11.29C21.7848 11.1748 21.7899 11.0596 21.7868 10.9445C21.732 8.91485 22.2474 9.14659 19.7875 9.13621C19.3626 9.13449 19.1506 9.31157 19.1706 9.75291C19.1771 9.8968 19.1869 10.0438 19.1655 10.1846C19.0814 10.7314 19.4593 11.4993 18.904 11.7836C18.264 12.1108 17.4579 11.9081 16.7239 11.8673C16.4934 11.8545 16.3794 11.6853 16.3654 11.4577C16.3514 11.2277 16.3685 10.9946 16.3365 10.7677C16.2633 10.2475 16.6234 9.49696 16.0944 9.25137C15.4166 8.93696 14.589 9.1037 13.8313 9.1867C13.4925 9.2237 13.4853 9.60556 13.3958 9.86739C12.0082 13.937 7.67107 15.847 3.86739 13.9751C1.27868 12.7012 0.04873 10.4858 2e-05 8.68552L0 8.68553ZM6.88636 3.60799C4.75758 3.58724 2.87196 5.43252 2.83683 7.57042C2.79972 9.8439 4.60575 11.7611 6.81315 11.7915C8.92893 11.8206 10.8071 9.98154 10.8667 7.82256C10.9287 5.58471 9.08177 3.62944 6.88636 3.608V3.60799Z" fill="white"/>
</svg>
