<?xml version="1.0" encoding="UTF-8"?><svg id="_이어_2" xmlns="http://www.w3.org/2000/svg" viewBox="0 0 332.39 270.52"><defs><style>.cls-1{fill:#003f4e;}.cls-2{fill:#35bde3;}</style></defs><g id="_이어_1-2"><g><path class="cls-2" d="M280.17,37.19l-.6-7.57-7.56,.69c-.57,.05-57.82,4.89-101.44-26.4l-4.37-3.91-4.37,3.91C118.21,35.2,60.96,30.36,60.39,30.31l-7.58-.71-.6,7.59c-3.5,44.42,2.9,88.84,3.18,90.83l15.86,6.96c-.02-.14-.69-4.98-1.54-12.81h26.75l27.39,27.39h43.52c.94,4.79,5.17,8.41,10.23,8.41,5.75,0,10.43-4.68,10.43-10.43s-4.68-10.43-10.43-10.43c-3.53,0-6.65,1.77-8.54,4.45h-41.9l-27.39-27.39h-30.88c-.32-3.35-.64-7-.95-10.89h107.96c1.57,3.77,5.3,6.43,9.63,6.43,5.75,0,10.43-4.68,10.43-10.43s-4.68-10.43-10.43-10.43c-4.34,0-8.06,2.66-9.63,6.43H67.38c-.24-3.61-.45-7.36-.62-11.19h40.81l29.22-28.17h40.93c1.57,3.77,5.3,6.43,9.63,6.43,5.75,0,10.43-4.68,10.43-10.43s-4.68-10.43-10.43-10.43c-4.34,0-8.06,2.66-9.63,6.43h-44.16l-29.22,28.17h-37.89c-.3-10.06-.3-20.49,.24-30.46,17.54,.36,61.62-1.56,99.5-26.54,37.88,24.98,81.96,26.9,99.5,26.54,2.19,40.7-4.5,88.91-4.56,89.35l15.86-6.96c.27-2,6.68-46.41,3.18-90.83Zm-102.56,104.92c3,0,5.43,2.44,5.43,5.43s-2.44,5.43-5.43,5.43-5.43-2.44-5.43-5.43,2.44-5.43,5.43-5.43Zm7.93-48.26c3,0,5.43,2.44,5.43,5.43s-2.44,5.43-5.43,5.43-5.43-2.44-5.43-5.43,2.44-5.43,5.43-5.43Zm1.8-47.37c3,0,5.43,2.44,5.43,5.43s-2.44,5.43-5.43,5.43-5.43-2.44-5.43-5.43,2.44-5.43,5.43-5.43Z"/><path class="cls-1" d="M332.39,88.96c0-21.13-12.75-35.61-34.19-51.18,12.79,13.15,20.1,23.39,20.1,39.65,0,49.59-68.1,88.79-152.11,88.79S14.09,124.35,14.09,77.42c0-16.25,7.31-26.49,20.1-39.65C12.75,53.35,0,67.82,0,88.96c0,30.02,25.71,58.27,65.54,76.46h-.02s21.43,68.23,100.67,105.1c79.24-36.87,100.67-105.1,100.67-105.1h-.02c39.83-18.19,65.54-46.44,65.54-76.46Z"/></g></g></svg>