<svg width="80" height="80" viewBox="0 0 80 80" fill="none" xmlns="http://www.w3.org/2000/svg">
<path opacity="0.1" fill-rule="evenodd" clip-rule="evenodd" d="M40 80C62.0914 80 80 62.0914 80 40C80 17.9086 62.0914 0 40 0C17.9086 0 0 17.9086 0 40C0 62.0914 17.9086 80 40 80Z" fill="#037DD6"/>
<path d="M58.8474 49.3779L58.8473 49.378C58.2437 54.2434 54.2419 58.2452 49.3766 58.8488L49.3764 58.8488C46.4175 59.2164 43.6722 58.4086 41.532 56.8354L41.53 56.834C40.8297 56.3218 41.0303 55.292 41.8071 55.059L41.8091 55.0584C48.1514 53.1409 53.1395 48.1294 55.0761 41.7935L55.0765 41.7918C55.3061 41.0363 56.3382 40.8264 56.8531 41.5123C58.4093 43.676 59.2145 46.4225 58.8474 49.3779Z" fill="#037DD6" stroke="#037DD6" stroke-width="2"/>
<path d="M34.7857 32.92H37.34C37.3453 32.92 37.3731 32.9202 37.4143 32.9663C37.4571 33.0141 37.5 33.1006 37.5 33.22C37.5 33.455 37.5331 33.6829 37.5948 33.8991L34.7857 32.92ZM41.6847 36.2383C41.4943 35.9632 41.2745 35.7165 41.0285 35.4964C41.8933 35.1015 42.5 34.2265 42.5 33.22C42.5 30.6706 40.7387 28.5456 38.3762 28.0466C38.0477 27.0483 37.1028 26.32 36 26.32C34.9344 26.32 34.0163 26.9999 33.6592 27.9463C31.2951 28.2808 29.5 30.3825 29.5 32.84C29.5 33.9415 29.7507 34.9351 30.3244 35.759C30.5157 36.0338 30.7361 36.2798 30.9824 36.4987C30.1117 36.8912 29.5 37.7693 29.5 38.78C29.5 41.3294 31.2613 43.4544 33.6238 43.9534C33.9523 44.9517 34.8972 45.68 36 45.68C37.0735 45.68 37.9973 44.9899 38.3487 44.0325C40.7089 43.6945 42.5 41.5948 42.5 39.14C42.5 38.0506 42.2553 37.0625 41.6847 36.2383ZM34.5 38.78C34.5 38.5369 34.4646 38.3015 34.3987 38.0786L37.2717 39.08H34.66C34.6547 39.08 34.6269 39.0798 34.5857 39.0337C34.5429 38.9859 34.5 38.8994 34.5 38.78ZM21 35.98C21 27.7123 27.7123 21 35.98 21C44.2454 21 50.9408 27.7102 50.96 35.9814C50.9592 44.2485 44.2472 50.96 35.98 50.96C27.7123 50.96 21 44.2477 21 35.98Z" fill="#037DD6" stroke="#037DD6" stroke-width="2"/>
</svg>
