<?xml version="1.0" encoding="utf-8"?>
<!-- Generator: Adobe Illustrator 27.5.0, SVG Export Plug-In . SVG Version: 6.00 Build 0)  -->
<svg version="1.1" id="_레이어_2" xmlns="http://www.w3.org/2000/svg" xmlns:xlink="http://www.w3.org/1999/xlink" x="0px"
	 y="0px" viewBox="0 0 66.9 60.2" style="enable-background:new 0 0 66.9 60.2;" xml:space="preserve">
<style type="text/css">
	.st0{fill:#FFFFFF;}
</style>
<g id="Layer_1">
	<g>
		<path class="st0" d="M3.3,6.7h60.2c1.8,0,3.3-1.5,3.3-3.3S65.4,0,63.6,0H3.3C1.5,0,0,1.5,0,3.3S1.5,6.7,3.3,6.7L3.3,6.7z"/>
		<path class="st0" d="M3.3,33.5h60.2c1.8,0,3.3-1.5,3.3-3.4s-1.5-3.4-3.3-3.4H3.3c-1.9,0-3.3,1.5-3.3,3.4S1.5,33.5,3.3,33.5z"/>
		<path class="st0" d="M63.6,53.5H33.5c-1.9,0-3.4,1.5-3.4,3.3s1.5,3.3,3.4,3.3h30.1c1.8,0,3.3-1.5,3.3-3.3S65.4,53.5,63.6,53.5z"/>
	</g>
</g>
</svg>
